<?xml version="1.0" encoding="utf-8" standalone="no"?>
<!DOCTYPE svg PUBLIC "-//W3C//DTD SVG 1.1//EN"
  "http://www.w3.org/Graphics/SVG/1.1/DTD/svg11.dtd">
<!-- Created with matplotlib (http://matplotlib.org/) -->
<svg height="207pt" version="1.1" viewBox="0 0 599 207" width="599pt" xmlns="http://www.w3.org/2000/svg" xmlns:xlink="http://www.w3.org/1999/xlink">
 <defs>
  <style type="text/css">
*{stroke-linecap:square;stroke-linejoin:round;}
  </style>
 </defs>
 <g id="figure_1">
  <g id="patch_1">
   <path d="
M0 207.482
L599.642 207.482
L599.642 0
L0 0
z
" style="fill:#ffffff;"/>
  </g>
  <g id="axes_1">
   <g id="patch_2">
    <path d="
M25.7797 188.718
L279.416 188.718
L279.416 21.3181
L25.7797 21.3181
z
" style="fill:#ffffff;"/>
   </g>
   <g id="line2d_1">
    <path clip-path="url(#p8cd45f1e13)" d="
M25.7797 188.625
L27.1888 187.545
L28.5979 187.044
L30.007 186.155
L32.8251 185.926
L34.2342 185.896
L37.0524 185.232
L41.2797 184.921
L44.0979 184.709
L45.507 184.574
L48.3251 184.423
L49.7342 184.396
L52.5524 184.158
L53.9615 183.696
L55.3706 183.512
L56.7797 183.058
L58.1888 182.807
L62.4161 182.547
L63.8251 182.016
L66.6433 181.929
L69.4615 181.197
L70.8706 181.092
L72.2797 180.612
L73.6888 180.382
L75.0979 179.982
L77.9161 179.802
L79.3251 179.7
L80.7342 178.651
L82.1433 178.494
L83.5524 178.023
L84.9615 177.99
L87.7797 177.605
L89.1888 177.104
L92.007 176.993
L93.4161 176.675
L94.8251 176.64
L96.2342 176.31
L99.0524 176.139
L100.462 175.383
L101.871 174.855
L103.28 174.855
L104.689 174.672
L106.098 174.285
L107.507 174.28
L108.916 173.745
L111.734 173.619
L113.143 171.926
L114.552 171.504
L117.371 171.224
L118.78 170.676
L121.598 170.484
L124.416 170.067
L125.825 169.839
L128.643 169.653
L130.052 168.662
L135.689 168.276
L139.916 168.206
L141.325 166.939
L144.143 166.113
L145.552 165.652
L146.962 165.631
L149.78 164.988
L151.189 164.021
L152.598 163.877
L154.007 163.608
L155.416 163.608
L156.825 163.143
L158.234 161.004
L159.643 160.816
L161.052 159.051
L162.462 156.773
L165.28 156.526
L166.689 155.703
L172.325 154.339
L173.734 153.994
L175.143 153
L176.552 152.46
L177.962 152.445
L180.78 152.039
L182.189 151.631
L183.598 150.905
L185.007 150.855
L186.416 150.645
L187.825 150.1
L189.234 150.004
L190.643 149.323
L192.052 149.019
L193.462 148.449
L194.871 146.496
L196.28 146.134
L197.689 144.329
L199.098 144.289
L200.507 141.753
L201.916 141.195
L203.325 140.135
L204.734 139.54
L206.143 139.242
L207.552 138.812
L208.962 138.058
L210.371 137.758
L211.78 137.627
L213.189 137.612
L214.598 137.285
L216.007 136.596
L217.416 135.698
L218.825 135.236
L220.234 134.267
L223.052 132.738
L224.462 132.68
L225.871 131.965
L227.28 129.268
L228.689 128.948
L230.098 128.819
L231.507 127.524
L232.916 126.46
L234.325 126.15
L235.734 124.455
L238.552 124.316
L239.962 124.083
L241.371 123.618
L244.189 123.566
L245.598 122.86
L247.007 122.004
L248.416 121.425
L249.825 120.563
L251.234 116.877
L252.643 116.062
L254.052 112.435
L256.871 102.712
L258.28 97.8571
L259.689 92.4399
L261.098 92.3055
L262.507 91.6807
L263.916 91.6475
L265.325 90.6031
L266.734 82.8439
L268.143 71.0553
L269.552 70.9867
L270.962 63.1914
L272.371 44.6611
L273.78 31.1529
L275.189 25.1311
L275.189 25.1311" style="fill:none;stroke:#0000ff;"/>
   </g>
   <g id="matplotlib.axis_1">
    <g id="xtick_1">
     <g id="line2d_2">
      <path clip-path="url(#p8cd45f1e13)" d="
M25.7797 188.718
L25.7797 21.3181" style="fill:none;stroke:#000000;stroke-dasharray:1.000000,3.000000;stroke-dashoffset:0.0;stroke-linecap:butt;stroke-width:0.5;"/>
     </g>
     <g id="line2d_3">
      <defs>
       <path d="
M0 0
L0 -4" id="mcb557df647" style="stroke:#000000;stroke-linecap:butt;stroke-width:0.5;"/>
      </defs>
      <g>
       <use style="stroke:#000000;stroke-linecap:butt;stroke-width:0.5;" x="25.7796875" xlink:href="#mcb557df647" y="188.718125"/>
      </g>
     </g>
     <g id="line2d_4">
      <defs>
       <path d="
M0 0
L0 4" id="mdad270ee8e" style="stroke:#000000;stroke-linecap:butt;stroke-width:0.5;"/>
      </defs>
      <g>
       <use style="stroke:#000000;stroke-linecap:butt;stroke-width:0.5;" x="25.7796875" xlink:href="#mdad270ee8e" y="21.318125"/>
      </g>
     </g>
     <g id="text_1">
      <!-- 0 -->
      <defs>
       <path d="
M31.7812 66.4062
Q24.1719 66.4062 20.3281 58.9062
Q16.5 51.4219 16.5 36.375
Q16.5 21.3906 20.3281 13.8906
Q24.1719 6.39062 31.7812 6.39062
Q39.4531 6.39062 43.2812 13.8906
Q47.125 21.3906 47.125 36.375
Q47.125 51.4219 43.2812 58.9062
Q39.4531 66.4062 31.7812 66.4062
M31.7812 74.2188
Q44.0469 74.2188 50.5156 64.5156
Q56.9844 54.8281 56.9844 36.375
Q56.9844 17.9688 50.5156 8.26562
Q44.0469 -1.42188 31.7812 -1.42188
Q19.5312 -1.42188 13.0625 8.26562
Q6.59375 17.9688 6.59375 36.375
Q6.59375 54.8281 13.0625 64.5156
Q19.5312 74.2188 31.7812 74.2188" id="BitstreamVeraSans-Roman-30"/>
      </defs>
      <g transform="translate(23.26015625 200.14)scale(0.1 -0.1)">
       <use xlink:href="#BitstreamVeraSans-Roman-30"/>
      </g>
     </g>
    </g>
    <g id="xtick_2">
     <g id="line2d_5">
      <path clip-path="url(#p8cd45f1e13)" d="
M53.9615 188.718
L53.9615 21.3181" style="fill:none;stroke:#000000;stroke-dasharray:1.000000,3.000000;stroke-dashoffset:0.0;stroke-linecap:butt;stroke-width:0.5;"/>
     </g>
     <g id="line2d_6">
      <g>
       <use style="stroke:#000000;stroke-linecap:butt;stroke-width:0.5;" x="53.9615056818" xlink:href="#mcb557df647" y="188.718125"/>
      </g>
     </g>
     <g id="line2d_7">
      <g>
       <use style="stroke:#000000;stroke-linecap:butt;stroke-width:0.5;" x="53.9615056818" xlink:href="#mdad270ee8e" y="21.318125"/>
      </g>
     </g>
     <g id="text_2">
      <!-- 20 -->
      <defs>
       <path d="
M19.1875 8.29688
L53.6094 8.29688
L53.6094 0
L7.32812 0
L7.32812 8.29688
Q12.9375 14.1094 22.625 23.8906
Q32.3281 33.6875 34.8125 36.5312
Q39.5469 41.8438 41.4219 45.5312
Q43.3125 49.2188 43.3125 52.7812
Q43.3125 58.5938 39.2344 62.25
Q35.1562 65.9219 28.6094 65.9219
Q23.9688 65.9219 18.8125 64.3125
Q13.6719 62.7031 7.8125 59.4219
L7.8125 69.3906
Q13.7656 71.7812 18.9375 73
Q24.125 74.2188 28.4219 74.2188
Q39.75 74.2188 46.4844 68.5469
Q53.2188 62.8906 53.2188 53.4219
Q53.2188 48.9219 51.5312 44.8906
Q49.8594 40.875 45.4062 35.4062
Q44.1875 33.9844 37.6406 27.2188
Q31.1094 20.4531 19.1875 8.29688" id="BitstreamVeraSans-Roman-32"/>
      </defs>
      <g transform="translate(48.2974431818 200.14)scale(0.1 -0.1)">
       <use xlink:href="#BitstreamVeraSans-Roman-32"/>
       <use x="63.623046875" xlink:href="#BitstreamVeraSans-Roman-30"/>
      </g>
     </g>
    </g>
    <g id="xtick_3">
     <g id="line2d_8">
      <path clip-path="url(#p8cd45f1e13)" d="
M82.1433 188.718
L82.1433 21.3181" style="fill:none;stroke:#000000;stroke-dasharray:1.000000,3.000000;stroke-dashoffset:0.0;stroke-linecap:butt;stroke-width:0.5;"/>
     </g>
     <g id="line2d_9">
      <g>
       <use style="stroke:#000000;stroke-linecap:butt;stroke-width:0.5;" x="82.1433238636" xlink:href="#mcb557df647" y="188.718125"/>
      </g>
     </g>
     <g id="line2d_10">
      <g>
       <use style="stroke:#000000;stroke-linecap:butt;stroke-width:0.5;" x="82.1433238636" xlink:href="#mdad270ee8e" y="21.318125"/>
      </g>
     </g>
     <g id="text_3">
      <!-- 40 -->
      <defs>
       <path d="
M37.7969 64.3125
L12.8906 25.3906
L37.7969 25.3906
z

M35.2031 72.9062
L47.6094 72.9062
L47.6094 25.3906
L58.0156 25.3906
L58.0156 17.1875
L47.6094 17.1875
L47.6094 0
L37.7969 0
L37.7969 17.1875
L4.89062 17.1875
L4.89062 26.7031
z
" id="BitstreamVeraSans-Roman-34"/>
      </defs>
      <g transform="translate(76.3573863636 200.14)scale(0.1 -0.1)">
       <use xlink:href="#BitstreamVeraSans-Roman-34"/>
       <use x="63.623046875" xlink:href="#BitstreamVeraSans-Roman-30"/>
      </g>
     </g>
    </g>
    <g id="xtick_4">
     <g id="line2d_11">
      <path clip-path="url(#p8cd45f1e13)" d="
M110.325 188.718
L110.325 21.3181" style="fill:none;stroke:#000000;stroke-dasharray:1.000000,3.000000;stroke-dashoffset:0.0;stroke-linecap:butt;stroke-width:0.5;"/>
     </g>
     <g id="line2d_12">
      <g>
       <use style="stroke:#000000;stroke-linecap:butt;stroke-width:0.5;" x="110.325142045" xlink:href="#mcb557df647" y="188.718125"/>
      </g>
     </g>
     <g id="line2d_13">
      <g>
       <use style="stroke:#000000;stroke-linecap:butt;stroke-width:0.5;" x="110.325142045" xlink:href="#mdad270ee8e" y="21.318125"/>
      </g>
     </g>
     <g id="text_4">
      <!-- 60 -->
      <defs>
       <path d="
M33.0156 40.375
Q26.375 40.375 22.4844 35.8281
Q18.6094 31.2969 18.6094 23.3906
Q18.6094 15.5312 22.4844 10.9531
Q26.375 6.39062 33.0156 6.39062
Q39.6562 6.39062 43.5312 10.9531
Q47.4062 15.5312 47.4062 23.3906
Q47.4062 31.2969 43.5312 35.8281
Q39.6562 40.375 33.0156 40.375
M52.5938 71.2969
L52.5938 62.3125
Q48.875 64.0625 45.0938 64.9844
Q41.3125 65.9219 37.5938 65.9219
Q27.8281 65.9219 22.6719 59.3281
Q17.5312 52.7344 16.7969 39.4062
Q19.6719 43.6562 24.0156 45.9219
Q28.375 48.1875 33.5938 48.1875
Q44.5781 48.1875 50.9531 41.5156
Q57.3281 34.8594 57.3281 23.3906
Q57.3281 12.1562 50.6875 5.35938
Q44.0469 -1.42188 33.0156 -1.42188
Q20.3594 -1.42188 13.6719 8.26562
Q6.98438 17.9688 6.98438 36.375
Q6.98438 53.6562 15.1875 63.9375
Q23.3906 74.2188 37.2031 74.2188
Q40.9219 74.2188 44.7031 73.4844
Q48.4844 72.75 52.5938 71.2969" id="BitstreamVeraSans-Roman-36"/>
      </defs>
      <g transform="translate(104.643892045 200.14)scale(0.1 -0.1)">
       <use xlink:href="#BitstreamVeraSans-Roman-36"/>
       <use x="63.623046875" xlink:href="#BitstreamVeraSans-Roman-30"/>
      </g>
     </g>
    </g>
    <g id="xtick_5">
     <g id="line2d_14">
      <path clip-path="url(#p8cd45f1e13)" d="
M138.507 188.718
L138.507 21.3181" style="fill:none;stroke:#000000;stroke-dasharray:1.000000,3.000000;stroke-dashoffset:0.0;stroke-linecap:butt;stroke-width:0.5;"/>
     </g>
     <g id="line2d_15">
      <g>
       <use style="stroke:#000000;stroke-linecap:butt;stroke-width:0.5;" x="138.506960227" xlink:href="#mcb557df647" y="188.718125"/>
      </g>
     </g>
     <g id="line2d_16">
      <g>
       <use style="stroke:#000000;stroke-linecap:butt;stroke-width:0.5;" x="138.506960227" xlink:href="#mdad270ee8e" y="21.318125"/>
      </g>
     </g>
     <g id="text_5">
      <!-- 80 -->
      <defs>
       <path d="
M31.7812 34.625
Q24.75 34.625 20.7188 30.8594
Q16.7031 27.0938 16.7031 20.5156
Q16.7031 13.9219 20.7188 10.1562
Q24.75 6.39062 31.7812 6.39062
Q38.8125 6.39062 42.8594 10.1719
Q46.9219 13.9688 46.9219 20.5156
Q46.9219 27.0938 42.8906 30.8594
Q38.875 34.625 31.7812 34.625
M21.9219 38.8125
Q15.5781 40.375 12.0312 44.7188
Q8.5 49.0781 8.5 55.3281
Q8.5 64.0625 14.7188 69.1406
Q20.9531 74.2188 31.7812 74.2188
Q42.6719 74.2188 48.875 69.1406
Q55.0781 64.0625 55.0781 55.3281
Q55.0781 49.0781 51.5312 44.7188
Q48 40.375 41.7031 38.8125
Q48.8281 37.1562 52.7969 32.3125
Q56.7812 27.4844 56.7812 20.5156
Q56.7812 9.90625 50.3125 4.23438
Q43.8438 -1.42188 31.7812 -1.42188
Q19.7344 -1.42188 13.25 4.23438
Q6.78125 9.90625 6.78125 20.5156
Q6.78125 27.4844 10.7812 32.3125
Q14.7969 37.1562 21.9219 38.8125
M18.3125 54.3906
Q18.3125 48.7344 21.8438 45.5625
Q25.3906 42.3906 31.7812 42.3906
Q38.1406 42.3906 41.7188 45.5625
Q45.3125 48.7344 45.3125 54.3906
Q45.3125 60.0625 41.7188 63.2344
Q38.1406 66.4062 31.7812 66.4062
Q25.3906 66.4062 21.8438 63.2344
Q18.3125 60.0625 18.3125 54.3906" id="BitstreamVeraSans-Roman-38"/>
      </defs>
      <g transform="translate(132.815553977 200.14)scale(0.1 -0.1)">
       <use xlink:href="#BitstreamVeraSans-Roman-38"/>
       <use x="63.623046875" xlink:href="#BitstreamVeraSans-Roman-30"/>
      </g>
     </g>
    </g>
    <g id="xtick_6">
     <g id="line2d_17">
      <path clip-path="url(#p8cd45f1e13)" d="
M166.689 188.718
L166.689 21.3181" style="fill:none;stroke:#000000;stroke-dasharray:1.000000,3.000000;stroke-dashoffset:0.0;stroke-linecap:butt;stroke-width:0.5;"/>
     </g>
     <g id="line2d_18">
      <g>
       <use style="stroke:#000000;stroke-linecap:butt;stroke-width:0.5;" x="166.688778409" xlink:href="#mcb557df647" y="188.718125"/>
      </g>
     </g>
     <g id="line2d_19">
      <g>
       <use style="stroke:#000000;stroke-linecap:butt;stroke-width:0.5;" x="166.688778409" xlink:href="#mdad270ee8e" y="21.318125"/>
      </g>
     </g>
     <g id="text_6">
      <!-- 100 -->
      <defs>
       <path d="
M12.4062 8.29688
L28.5156 8.29688
L28.5156 63.9219
L10.9844 60.4062
L10.9844 69.3906
L28.4219 72.9062
L38.2812 72.9062
L38.2812 8.29688
L54.3906 8.29688
L54.3906 0
L12.4062 0
z
" id="BitstreamVeraSans-Roman-31"/>
      </defs>
      <g transform="translate(158.026278409 200.14)scale(0.1 -0.1)">
       <use xlink:href="#BitstreamVeraSans-Roman-31"/>
       <use x="63.623046875" xlink:href="#BitstreamVeraSans-Roman-30"/>
       <use x="127.24609375" xlink:href="#BitstreamVeraSans-Roman-30"/>
      </g>
     </g>
    </g>
    <g id="xtick_7">
     <g id="line2d_20">
      <path clip-path="url(#p8cd45f1e13)" d="
M194.871 188.718
L194.871 21.3181" style="fill:none;stroke:#000000;stroke-dasharray:1.000000,3.000000;stroke-dashoffset:0.0;stroke-linecap:butt;stroke-width:0.5;"/>
     </g>
     <g id="line2d_21">
      <g>
       <use style="stroke:#000000;stroke-linecap:butt;stroke-width:0.5;" x="194.870596591" xlink:href="#mcb557df647" y="188.718125"/>
      </g>
     </g>
     <g id="line2d_22">
      <g>
       <use style="stroke:#000000;stroke-linecap:butt;stroke-width:0.5;" x="194.870596591" xlink:href="#mdad270ee8e" y="21.318125"/>
      </g>
     </g>
     <g id="text_7">
      <!-- 120 -->
      <g transform="translate(186.208096591 200.14)scale(0.1 -0.1)">
       <use xlink:href="#BitstreamVeraSans-Roman-31"/>
       <use x="63.623046875" xlink:href="#BitstreamVeraSans-Roman-32"/>
       <use x="127.24609375" xlink:href="#BitstreamVeraSans-Roman-30"/>
      </g>
     </g>
    </g>
    <g id="xtick_8">
     <g id="line2d_23">
      <path clip-path="url(#p8cd45f1e13)" d="
M223.052 188.718
L223.052 21.3181" style="fill:none;stroke:#000000;stroke-dasharray:1.000000,3.000000;stroke-dashoffset:0.0;stroke-linecap:butt;stroke-width:0.5;"/>
     </g>
     <g id="line2d_24">
      <g>
       <use style="stroke:#000000;stroke-linecap:butt;stroke-width:0.5;" x="223.052414773" xlink:href="#mcb557df647" y="188.718125"/>
      </g>
     </g>
     <g id="line2d_25">
      <g>
       <use style="stroke:#000000;stroke-linecap:butt;stroke-width:0.5;" x="223.052414773" xlink:href="#mdad270ee8e" y="21.318125"/>
      </g>
     </g>
     <g id="text_8">
      <!-- 140 -->
      <g transform="translate(214.389914773 200.14)scale(0.1 -0.1)">
       <use xlink:href="#BitstreamVeraSans-Roman-31"/>
       <use x="63.623046875" xlink:href="#BitstreamVeraSans-Roman-34"/>
       <use x="127.24609375" xlink:href="#BitstreamVeraSans-Roman-30"/>
      </g>
     </g>
    </g>
    <g id="xtick_9">
     <g id="line2d_26">
      <path clip-path="url(#p8cd45f1e13)" d="
M251.234 188.718
L251.234 21.3181" style="fill:none;stroke:#000000;stroke-dasharray:1.000000,3.000000;stroke-dashoffset:0.0;stroke-linecap:butt;stroke-width:0.5;"/>
     </g>
     <g id="line2d_27">
      <g>
       <use style="stroke:#000000;stroke-linecap:butt;stroke-width:0.5;" x="251.234232955" xlink:href="#mcb557df647" y="188.718125"/>
      </g>
     </g>
     <g id="line2d_28">
      <g>
       <use style="stroke:#000000;stroke-linecap:butt;stroke-width:0.5;" x="251.234232955" xlink:href="#mdad270ee8e" y="21.318125"/>
      </g>
     </g>
     <g id="text_9">
      <!-- 160 -->
      <g transform="translate(242.571732955 200.14)scale(0.1 -0.1)">
       <use xlink:href="#BitstreamVeraSans-Roman-31"/>
       <use x="63.623046875" xlink:href="#BitstreamVeraSans-Roman-36"/>
       <use x="127.24609375" xlink:href="#BitstreamVeraSans-Roman-30"/>
      </g>
     </g>
    </g>
    <g id="xtick_10">
     <g id="line2d_29">
      <path clip-path="url(#p8cd45f1e13)" d="
M279.416 188.718
L279.416 21.3181" style="fill:none;stroke:#000000;stroke-dasharray:1.000000,3.000000;stroke-dashoffset:0.0;stroke-linecap:butt;stroke-width:0.5;"/>
     </g>
     <g id="line2d_30">
      <g>
       <use style="stroke:#000000;stroke-linecap:butt;stroke-width:0.5;" x="279.416051136" xlink:href="#mcb557df647" y="188.718125"/>
      </g>
     </g>
     <g id="line2d_31">
      <g>
       <use style="stroke:#000000;stroke-linecap:butt;stroke-width:0.5;" x="279.416051136" xlink:href="#mdad270ee8e" y="21.318125"/>
      </g>
     </g>
     <g id="text_10">
      <!-- 180 -->
      <g transform="translate(270.753551136 200.14)scale(0.1 -0.1)">
       <use xlink:href="#BitstreamVeraSans-Roman-31"/>
       <use x="63.623046875" xlink:href="#BitstreamVeraSans-Roman-38"/>
       <use x="127.24609375" xlink:href="#BitstreamVeraSans-Roman-30"/>
      </g>
     </g>
    </g>
   </g>
   <g id="matplotlib.axis_2">
    <g id="ytick_1">
     <g id="line2d_32">
      <path clip-path="url(#p8cd45f1e13)" d="
M25.7797 188.718
L279.416 188.718" style="fill:none;stroke:#000000;stroke-dasharray:1.000000,3.000000;stroke-dashoffset:0.0;stroke-linecap:butt;stroke-width:0.5;"/>
     </g>
     <g id="line2d_33">
      <defs>
       <path d="
M0 0
L4 0" id="mc8fcea1516" style="stroke:#000000;stroke-linecap:butt;stroke-width:0.5;"/>
      </defs>
      <g>
       <use style="stroke:#000000;stroke-linecap:butt;stroke-width:0.5;" x="25.7796875" xlink:href="#mc8fcea1516" y="188.718125"/>
      </g>
     </g>
     <g id="line2d_34">
      <defs>
       <path d="
M0 0
L-4 0" id="m0d5b0a6425" style="stroke:#000000;stroke-linecap:butt;stroke-width:0.5;"/>
      </defs>
      <g>
       <use style="stroke:#000000;stroke-linecap:butt;stroke-width:0.5;" x="279.416051136" xlink:href="#m0d5b0a6425" y="188.718125"/>
      </g>
     </g>
     <g id="text_11">
      <!-- 0.0 -->
      <defs>
       <path d="
M10.6875 12.4062
L21 12.4062
L21 0
L10.6875 0
z
" id="BitstreamVeraSans-Roman-2e"/>
      </defs>
      <g transform="translate(7.2 192.35796875)scale(0.1 -0.1)">
       <use xlink:href="#BitstreamVeraSans-Roman-30"/>
       <use x="63.623046875" xlink:href="#BitstreamVeraSans-Roman-2e"/>
       <use x="95.41015625" xlink:href="#BitstreamVeraSans-Roman-30"/>
      </g>
     </g>
    </g>
    <g id="ytick_2">
     <g id="line2d_35">
      <path clip-path="url(#p8cd45f1e13)" d="
M25.7797 146.868
L279.416 146.868" style="fill:none;stroke:#000000;stroke-dasharray:1.000000,3.000000;stroke-dashoffset:0.0;stroke-linecap:butt;stroke-width:0.5;"/>
     </g>
     <g id="line2d_36">
      <g>
       <use style="stroke:#000000;stroke-linecap:butt;stroke-width:0.5;" x="25.7796875" xlink:href="#mc8fcea1516" y="146.868125"/>
      </g>
     </g>
     <g id="line2d_37">
      <g>
       <use style="stroke:#000000;stroke-linecap:butt;stroke-width:0.5;" x="279.416051136" xlink:href="#m0d5b0a6425" y="146.868125"/>
      </g>
     </g>
     <g id="text_12">
      <!-- 0.5 -->
      <defs>
       <path d="
M10.7969 72.9062
L49.5156 72.9062
L49.5156 64.5938
L19.8281 64.5938
L19.8281 46.7344
Q21.9688 47.4688 24.1094 47.8281
Q26.2656 48.1875 28.4219 48.1875
Q40.625 48.1875 47.75 41.5
Q54.8906 34.8125 54.8906 23.3906
Q54.8906 11.625 47.5625 5.09375
Q40.2344 -1.42188 26.9062 -1.42188
Q22.3125 -1.42188 17.5469 -0.640625
Q12.7969 0.140625 7.71875 1.70312
L7.71875 11.625
Q12.1094 9.23438 16.7969 8.0625
Q21.4844 6.89062 26.7031 6.89062
Q35.1562 6.89062 40.0781 11.3281
Q45.0156 15.7656 45.0156 23.3906
Q45.0156 31 40.0781 35.4375
Q35.1562 39.8906 26.7031 39.8906
Q22.75 39.8906 18.8125 39.0156
Q14.8906 38.1406 10.7969 36.2812
z
" id="BitstreamVeraSans-Roman-35"/>
      </defs>
      <g transform="translate(7.409375 150.50796875)scale(0.1 -0.1)">
       <use xlink:href="#BitstreamVeraSans-Roman-30"/>
       <use x="63.623046875" xlink:href="#BitstreamVeraSans-Roman-2e"/>
       <use x="95.41015625" xlink:href="#BitstreamVeraSans-Roman-35"/>
      </g>
     </g>
    </g>
    <g id="ytick_3">
     <g id="line2d_38">
      <path clip-path="url(#p8cd45f1e13)" d="
M25.7797 105.018
L279.416 105.018" style="fill:none;stroke:#000000;stroke-dasharray:1.000000,3.000000;stroke-dashoffset:0.0;stroke-linecap:butt;stroke-width:0.5;"/>
     </g>
     <g id="line2d_39">
      <g>
       <use style="stroke:#000000;stroke-linecap:butt;stroke-width:0.5;" x="25.7796875" xlink:href="#mc8fcea1516" y="105.018125"/>
      </g>
     </g>
     <g id="line2d_40">
      <g>
       <use style="stroke:#000000;stroke-linecap:butt;stroke-width:0.5;" x="279.416051136" xlink:href="#m0d5b0a6425" y="105.018125"/>
      </g>
     </g>
     <g id="text_13">
      <!-- 1.0 -->
      <g transform="translate(7.6390625 108.65796875)scale(0.1 -0.1)">
       <use xlink:href="#BitstreamVeraSans-Roman-31"/>
       <use x="63.623046875" xlink:href="#BitstreamVeraSans-Roman-2e"/>
       <use x="95.41015625" xlink:href="#BitstreamVeraSans-Roman-30"/>
      </g>
     </g>
    </g>
    <g id="ytick_4">
     <g id="line2d_41">
      <path clip-path="url(#p8cd45f1e13)" d="
M25.7797 63.1681
L279.416 63.1681" style="fill:none;stroke:#000000;stroke-dasharray:1.000000,3.000000;stroke-dashoffset:0.0;stroke-linecap:butt;stroke-width:0.5;"/>
     </g>
     <g id="line2d_42">
      <g>
       <use style="stroke:#000000;stroke-linecap:butt;stroke-width:0.5;" x="25.7796875" xlink:href="#mc8fcea1516" y="63.168125"/>
      </g>
     </g>
     <g id="line2d_43">
      <g>
       <use style="stroke:#000000;stroke-linecap:butt;stroke-width:0.5;" x="279.416051136" xlink:href="#m0d5b0a6425" y="63.168125"/>
      </g>
     </g>
     <g id="text_14">
      <!-- 1.5 -->
      <g transform="translate(7.8484375 66.74234375)scale(0.1 -0.1)">
       <use xlink:href="#BitstreamVeraSans-Roman-31"/>
       <use x="63.623046875" xlink:href="#BitstreamVeraSans-Roman-2e"/>
       <use x="95.41015625" xlink:href="#BitstreamVeraSans-Roman-35"/>
      </g>
     </g>
    </g>
    <g id="ytick_5">
     <g id="line2d_44">
      <path clip-path="url(#p8cd45f1e13)" d="
M25.7797 21.3181
L279.416 21.3181" style="fill:none;stroke:#000000;stroke-dasharray:1.000000,3.000000;stroke-dashoffset:0.0;stroke-linecap:butt;stroke-width:0.5;"/>
     </g>
     <g id="line2d_45">
      <g>
       <use style="stroke:#000000;stroke-linecap:butt;stroke-width:0.5;" x="25.7796875" xlink:href="#mc8fcea1516" y="21.318125"/>
      </g>
     </g>
     <g id="line2d_46">
      <g>
       <use style="stroke:#000000;stroke-linecap:butt;stroke-width:0.5;" x="279.416051136" xlink:href="#m0d5b0a6425" y="21.318125"/>
      </g>
     </g>
     <g id="text_15">
      <!-- 2.0 -->
      <g transform="translate(7.2734375 24.95796875)scale(0.1 -0.1)">
       <use xlink:href="#BitstreamVeraSans-Roman-32"/>
       <use x="63.623046875" xlink:href="#BitstreamVeraSans-Roman-2e"/>
       <use x="95.41015625" xlink:href="#BitstreamVeraSans-Roman-30"/>
      </g>
     </g>
    </g>
   </g>
   <g id="patch_3">
    <path d="
M25.7797 21.3181
L279.416 21.3181" style="fill:none;stroke:#000000;"/>
   </g>
   <g id="patch_4">
    <path d="
M279.416 188.718
L279.416 21.3181" style="fill:none;stroke:#000000;"/>
   </g>
   <g id="patch_5">
    <path d="
M25.7797 188.718
L279.416 188.718" style="fill:none;stroke:#000000;"/>
   </g>
   <g id="patch_6">
    <path d="
M25.7797 188.718
L25.7797 21.3181" style="fill:none;stroke:#000000;"/>
   </g>
   <g id="text_16">
    <!-- summedSquaredError -->
    <defs>
     <path d="
M41.1094 46.2969
Q39.5938 47.1719 37.8125 47.5781
Q36.0312 48 33.8906 48
Q26.2656 48 22.1875 43.0469
Q18.1094 38.0938 18.1094 28.8125
L18.1094 0
L9.07812 0
L9.07812 54.6875
L18.1094 54.6875
L18.1094 46.1875
Q20.9531 51.1719 25.4844 53.5781
Q30.0312 56 36.5312 56
Q37.4531 56 38.5781 55.875
Q39.7031 55.7656 41.0625 55.5156
z
" id="BitstreamVeraSans-Roman-72"/>
     <path d="
M52 44.1875
Q55.375 50.25 60.0625 53.125
Q64.75 56 71.0938 56
Q79.6406 56 84.2812 50.0156
Q88.9219 44.0469 88.9219 33.0156
L88.9219 0
L79.8906 0
L79.8906 32.7188
Q79.8906 40.5781 77.0938 44.375
Q74.3125 48.1875 68.6094 48.1875
Q61.625 48.1875 57.5625 43.5469
Q53.5156 38.9219 53.5156 30.9062
L53.5156 0
L44.4844 0
L44.4844 32.7188
Q44.4844 40.625 41.7031 44.4062
Q38.9219 48.1875 33.1094 48.1875
Q26.2188 48.1875 22.1562 43.5312
Q18.1094 38.875 18.1094 30.9062
L18.1094 0
L9.07812 0
L9.07812 54.6875
L18.1094 54.6875
L18.1094 46.1875
Q21.1875 51.2188 25.4844 53.6094
Q29.7812 56 35.6875 56
Q41.6562 56 45.8281 52.9688
Q50 49.9531 52 44.1875" id="BitstreamVeraSans-Roman-6d"/>
     <path d="
M30.6094 48.3906
Q23.3906 48.3906 19.1875 42.75
Q14.9844 37.1094 14.9844 27.2969
Q14.9844 17.4844 19.1562 11.8438
Q23.3438 6.20312 30.6094 6.20312
Q37.7969 6.20312 41.9844 11.8594
Q46.1875 17.5312 46.1875 27.2969
Q46.1875 37.0156 41.9844 42.7031
Q37.7969 48.3906 30.6094 48.3906
M30.6094 56
Q42.3281 56 49.0156 48.375
Q55.7188 40.7656 55.7188 27.2969
Q55.7188 13.875 49.0156 6.21875
Q42.3281 -1.42188 30.6094 -1.42188
Q18.8438 -1.42188 12.1719 6.21875
Q5.51562 13.875 5.51562 27.2969
Q5.51562 40.7656 12.1719 48.375
Q18.8438 56 30.6094 56" id="BitstreamVeraSans-Roman-6f"/>
     <path d="
M9.8125 72.9062
L55.9062 72.9062
L55.9062 64.5938
L19.6719 64.5938
L19.6719 43.0156
L54.3906 43.0156
L54.3906 34.7188
L19.6719 34.7188
L19.6719 8.29688
L56.7812 8.29688
L56.7812 0
L9.8125 0
z
" id="BitstreamVeraSans-Roman-45"/>
     <path d="
M53.5156 70.5156
L53.5156 60.8906
Q47.9062 63.5781 42.9219 64.8906
Q37.9375 66.2188 33.2969 66.2188
Q25.25 66.2188 20.875 63.0938
Q16.5 59.9688 16.5 54.2031
Q16.5 49.3594 19.4062 46.8906
Q22.3125 44.4375 30.4219 42.9219
L36.375 41.7031
Q47.4062 39.5938 52.6562 34.2969
Q57.9062 29 57.9062 20.125
Q57.9062 9.51562 50.7969 4.04688
Q43.7031 -1.42188 29.9844 -1.42188
Q24.8125 -1.42188 18.9688 -0.25
Q13.1406 0.921875 6.89062 3.21875
L6.89062 13.375
Q12.8906 10.0156 18.6562 8.29688
Q24.4219 6.59375 29.9844 6.59375
Q38.4219 6.59375 43.0156 9.90625
Q47.6094 13.2344 47.6094 19.3906
Q47.6094 24.75 44.3125 27.7812
Q41.0156 30.8125 33.5 32.3281
L27.4844 33.5
Q16.4531 35.6875 11.5156 40.375
Q6.59375 45.0625 6.59375 53.4219
Q6.59375 63.0938 13.4062 68.6562
Q20.2188 74.2188 32.1719 74.2188
Q37.3125 74.2188 42.625 73.2812
Q47.9531 72.3594 53.5156 70.5156" id="BitstreamVeraSans-Roman-53"/>
     <path d="
M56.2031 29.5938
L56.2031 25.2031
L14.8906 25.2031
Q15.4844 15.9219 20.4844 11.0625
Q25.4844 6.20312 34.4219 6.20312
Q39.5938 6.20312 44.4531 7.46875
Q49.3125 8.73438 54.1094 11.2812
L54.1094 2.78125
Q49.2656 0.734375 44.1875 -0.34375
Q39.1094 -1.42188 33.8906 -1.42188
Q20.7969 -1.42188 13.1562 6.1875
Q5.51562 13.8125 5.51562 26.8125
Q5.51562 40.2344 12.7656 48.1094
Q20.0156 56 32.3281 56
Q43.3594 56 49.7812 48.8906
Q56.2031 41.7969 56.2031 29.5938
M47.2188 32.2344
Q47.125 39.5938 43.0938 43.9844
Q39.0625 48.3906 32.4219 48.3906
Q24.9062 48.3906 20.3906 44.1406
Q15.875 39.8906 15.1875 32.1719
z
" id="BitstreamVeraSans-Roman-65"/>
     <path d="
M45.4062 46.3906
L45.4062 75.9844
L54.3906 75.9844
L54.3906 0
L45.4062 0
L45.4062 8.20312
Q42.5781 3.32812 38.25 0.953125
Q33.9375 -1.42188 27.875 -1.42188
Q17.9688 -1.42188 11.7344 6.48438
Q5.51562 14.4062 5.51562 27.2969
Q5.51562 40.1875 11.7344 48.0938
Q17.9688 56 27.875 56
Q33.9375 56 38.25 53.625
Q42.5781 51.2656 45.4062 46.3906
M14.7969 27.2969
Q14.7969 17.3906 18.875 11.75
Q22.9531 6.10938 30.0781 6.10938
Q37.2031 6.10938 41.2969 11.75
Q45.4062 17.3906 45.4062 27.2969
Q45.4062 37.2031 41.2969 42.8438
Q37.2031 48.4844 30.0781 48.4844
Q22.9531 48.4844 18.875 42.8438
Q14.7969 37.2031 14.7969 27.2969" id="BitstreamVeraSans-Roman-64"/>
     <path d="
M8.5 21.5781
L8.5 54.6875
L17.4844 54.6875
L17.4844 21.9219
Q17.4844 14.1562 20.5 10.2656
Q23.5312 6.39062 29.5938 6.39062
Q36.8594 6.39062 41.0781 11.0312
Q45.3125 15.6719 45.3125 23.6875
L45.3125 54.6875
L54.2969 54.6875
L54.2969 0
L45.3125 0
L45.3125 8.40625
Q42.0469 3.42188 37.7188 1
Q33.4062 -1.42188 27.6875 -1.42188
Q18.2656 -1.42188 13.375 4.4375
Q8.5 10.2969 8.5 21.5781" id="BitstreamVeraSans-Roman-75"/>
     <path d="
M34.2812 27.4844
Q23.3906 27.4844 19.1875 25
Q14.9844 22.5156 14.9844 16.5
Q14.9844 11.7188 18.1406 8.90625
Q21.2969 6.10938 26.7031 6.10938
Q34.1875 6.10938 38.7031 11.4062
Q43.2188 16.7031 43.2188 25.4844
L43.2188 27.4844
z

M52.2031 31.2031
L52.2031 0
L43.2188 0
L43.2188 8.29688
Q40.1406 3.32812 35.5469 0.953125
Q30.9531 -1.42188 24.3125 -1.42188
Q15.9219 -1.42188 10.9531 3.29688
Q6 8.01562 6 15.9219
Q6 25.1406 12.1719 29.8281
Q18.3594 34.5156 30.6094 34.5156
L43.2188 34.5156
L43.2188 35.4062
Q43.2188 41.6094 39.1406 45
Q35.0625 48.3906 27.6875 48.3906
Q23 48.3906 18.5469 47.2656
Q14.1094 46.1406 10.0156 43.8906
L10.0156 52.2031
Q14.9375 54.1094 19.5781 55.0469
Q24.2188 56 28.6094 56
Q40.4844 56 46.3438 49.8438
Q52.2031 43.7031 52.2031 31.2031" id="BitstreamVeraSans-Roman-61"/>
     <path d="
M44.2812 53.0781
L44.2812 44.5781
Q40.4844 46.5312 36.375 47.5
Q32.2812 48.4844 27.875 48.4844
Q21.1875 48.4844 17.8438 46.4375
Q14.5 44.3906 14.5 40.2812
Q14.5 37.1562 16.8906 35.375
Q19.2812 33.5938 26.5156 31.9844
L29.5938 31.2969
Q39.1562 29.25 43.1875 25.5156
Q47.2188 21.7812 47.2188 15.0938
Q47.2188 7.46875 41.1875 3.01562
Q35.1562 -1.42188 24.6094 -1.42188
Q20.2188 -1.42188 15.4531 -0.5625
Q10.6875 0.296875 5.42188 2
L5.42188 11.2812
Q10.4062 8.6875 15.2344 7.39062
Q20.0625 6.10938 24.8125 6.10938
Q31.1562 6.10938 34.5625 8.28125
Q37.9844 10.4531 37.9844 14.4062
Q37.9844 18.0625 35.5156 20.0156
Q33.0625 21.9688 24.7031 23.7812
L21.5781 24.5156
Q13.2344 26.2656 9.51562 29.9062
Q5.8125 33.5469 5.8125 39.8906
Q5.8125 47.6094 11.2812 51.7969
Q16.75 56 26.8125 56
Q31.7812 56 36.1719 55.2656
Q40.5781 54.5469 44.2812 53.0781" id="BitstreamVeraSans-Roman-73"/>
     <path d="
M14.7969 27.2969
Q14.7969 17.3906 18.875 11.75
Q22.9531 6.10938 30.0781 6.10938
Q37.2031 6.10938 41.2969 11.75
Q45.4062 17.3906 45.4062 27.2969
Q45.4062 37.2031 41.2969 42.8438
Q37.2031 48.4844 30.0781 48.4844
Q22.9531 48.4844 18.875 42.8438
Q14.7969 37.2031 14.7969 27.2969
M45.4062 8.20312
Q42.5781 3.32812 38.25 0.953125
Q33.9375 -1.42188 27.875 -1.42188
Q17.9688 -1.42188 11.7344 6.48438
Q5.51562 14.4062 5.51562 27.2969
Q5.51562 40.1875 11.7344 48.0938
Q17.9688 56 27.875 56
Q33.9375 56 38.25 53.625
Q42.5781 51.2656 45.4062 46.3906
L45.4062 54.6875
L54.3906 54.6875
L54.3906 -20.7969
L45.4062 -20.7969
z
" id="BitstreamVeraSans-Roman-71"/>
    </defs>
    <g transform="translate(87.2531818182 16.318125)scale(0.12 -0.12)">
     <use xlink:href="#BitstreamVeraSans-Roman-73"/>
     <use x="52.099609375" xlink:href="#BitstreamVeraSans-Roman-75"/>
     <use x="115.478515625" xlink:href="#BitstreamVeraSans-Roman-6d"/>
     <use x="212.890625" xlink:href="#BitstreamVeraSans-Roman-6d"/>
     <use x="310.302734375" xlink:href="#BitstreamVeraSans-Roman-65"/>
     <use x="371.826171875" xlink:href="#BitstreamVeraSans-Roman-64"/>
     <use x="435.302734375" xlink:href="#BitstreamVeraSans-Roman-53"/>
     <use x="498.779296875" xlink:href="#BitstreamVeraSans-Roman-71"/>
     <use x="562.255859375" xlink:href="#BitstreamVeraSans-Roman-75"/>
     <use x="625.634765625" xlink:href="#BitstreamVeraSans-Roman-61"/>
     <use x="686.9140625" xlink:href="#BitstreamVeraSans-Roman-72"/>
     <use x="725.77734375" xlink:href="#BitstreamVeraSans-Roman-65"/>
     <use x="787.30078125" xlink:href="#BitstreamVeraSans-Roman-64"/>
     <use x="850.77734375" xlink:href="#BitstreamVeraSans-Roman-45"/>
     <use x="913.9609375" xlink:href="#BitstreamVeraSans-Roman-72"/>
     <use x="953.32421875" xlink:href="#BitstreamVeraSans-Roman-72"/>
     <use x="992.1875" xlink:href="#BitstreamVeraSans-Roman-6f"/>
     <use x="1053.36914062" xlink:href="#BitstreamVeraSans-Roman-72"/>
    </g>
   </g>
  </g>
  <g id="axes_2">
   <g id="patch_7">
    <path d="
M330.143 188.718
L583.78 188.718
L583.78 21.3181
L330.143 21.3181
z
" style="fill:#ffffff;"/>
   </g>
   <g id="line2d_47">
    <path clip-path="url(#p432674d547)" d="
M330.143 184.583
L331.552 131.545
L332.962 124.102
L334.371 115.186
L335.78 114.12
L337.189 113.394
L338.598 113.172
L340.007 110.794
L341.416 108.753
L342.825 108.011
L344.234 107.061
L345.643 106.963
L347.052 106.6
L349.871 105.133
L351.28 105.025
L352.689 104.387
L354.098 104.252
L355.507 103.48
L356.916 103.134
L358.325 101.115
L359.734 100.362
L361.143 98.6109
L362.552 97.7021
L366.78 96.8005
L368.189 95.0758
L369.598 94.8153
L371.007 94.8054
L372.416 93.6582
L373.825 92.6612
L375.234 92.3726
L376.643 91.0952
L378.052 90.5086
L379.462 89.5298
L380.871 89.4264
L383.689 88.8641
L385.098 86.5613
L386.507 86.2371
L387.916 85.2955
L389.325 85.2315
L390.734 84.9347
L392.143 84.493
L393.552 83.57
L394.962 83.384
L396.371 83.3714
L397.78 82.8107
L399.189 82.7502
L400.598 82.186
L402.007 81.9676
L403.416 81.8996
L404.825 80.679
L406.234 79.8669
L407.643 79.8669
L409.052 79.5924
L410.462 79.0235
L411.871 79.0158
L413.28 78.2548
L416.098 78.0787
L417.507 75.8553
L418.916 75.3365
L421.734 74.9987
L423.143 74.3533
L425.962 74.132
L428.78 73.6589
L430.189 73.4044
L433.007 73.1993
L434.416 72.1392
L440.052 71.7394
L444.28 71.6681
L445.689 70.4141
L448.507 69.635
L449.916 69.2128
L451.325 69.194
L454.143 68.6189
L455.552 67.783
L459.78 67.4363
L461.189 67.0523
L462.598 65.3716
L464.007 65.2296
L465.416 63.9466
L466.825 62.3983
L469.643 62.237
L471.052 61.7092
L478.098 60.6531
L479.507 60.0626
L480.916 59.7483
L483.734 59.6374
L486.552 59.2756
L487.962 58.8696
L490.78 58.7263
L492.189 58.4289
L493.598 58.3772
L495.007 58.0124
L496.416 57.8514
L497.825 57.553
L499.234 56.5621
L500.643 56.3832
L502.052 55.5149
L503.462 55.4957
L504.871 54.3344
L506.28 54.0872
L507.689 53.6254
L509.098 53.3709
L511.916 53.0633
L513.325 52.7495
L516.143 52.5721
L517.552 52.5663
L518.962 52.4328
L527.416 50.66
L528.825 50.6383
L530.234 50.373
L531.643 49.4015
L534.462 49.2443
L537.28 48.4359
L538.689 48.3319
L540.098 47.7727
L544.325 47.6519
L545.734 47.5019
L548.552 47.4851
L554.189 46.5424
L555.598 45.4401
L557.007 45.204
L558.416 44.1847
L562.643 40.5254
L564.052 39.3136
L568.28 39.142
L569.689 38.9181
L571.098 37.3255
L572.507 35.1164
L573.916 35.1042
L575.325 33.7626
L576.734 30.8815
L578.143 29.006
L579.552 28.2212
L579.552 28.2212" style="fill:none;stroke:#0000ff;"/>
   </g>
   <g id="matplotlib.axis_3">
    <g id="xtick_11">
     <g id="line2d_48">
      <path clip-path="url(#p432674d547)" d="
M330.143 188.718
L330.143 21.3181" style="fill:none;stroke:#000000;stroke-dasharray:1.000000,3.000000;stroke-dashoffset:0.0;stroke-linecap:butt;stroke-width:0.5;"/>
     </g>
     <g id="line2d_49">
      <g>
       <use style="stroke:#000000;stroke-linecap:butt;stroke-width:0.5;" x="330.143323864" xlink:href="#mcb557df647" y="188.718125"/>
      </g>
     </g>
     <g id="line2d_50">
      <g>
       <use style="stroke:#000000;stroke-linecap:butt;stroke-width:0.5;" x="330.143323864" xlink:href="#mdad270ee8e" y="21.318125"/>
      </g>
     </g>
     <g id="text_17">
      <!-- 0 -->
      <g transform="translate(327.623792614 200.14)scale(0.1 -0.1)">
       <use xlink:href="#BitstreamVeraSans-Roman-30"/>
      </g>
     </g>
    </g>
    <g id="xtick_12">
     <g id="line2d_51">
      <path clip-path="url(#p432674d547)" d="
M358.325 188.718
L358.325 21.3181" style="fill:none;stroke:#000000;stroke-dasharray:1.000000,3.000000;stroke-dashoffset:0.0;stroke-linecap:butt;stroke-width:0.5;"/>
     </g>
     <g id="line2d_52">
      <g>
       <use style="stroke:#000000;stroke-linecap:butt;stroke-width:0.5;" x="358.325142045" xlink:href="#mcb557df647" y="188.718125"/>
      </g>
     </g>
     <g id="line2d_53">
      <g>
       <use style="stroke:#000000;stroke-linecap:butt;stroke-width:0.5;" x="358.325142045" xlink:href="#mdad270ee8e" y="21.318125"/>
      </g>
     </g>
     <g id="text_18">
      <!-- 20 -->
      <g transform="translate(352.661079545 200.14)scale(0.1 -0.1)">
       <use xlink:href="#BitstreamVeraSans-Roman-32"/>
       <use x="63.623046875" xlink:href="#BitstreamVeraSans-Roman-30"/>
      </g>
     </g>
    </g>
    <g id="xtick_13">
     <g id="line2d_54">
      <path clip-path="url(#p432674d547)" d="
M386.507 188.718
L386.507 21.3181" style="fill:none;stroke:#000000;stroke-dasharray:1.000000,3.000000;stroke-dashoffset:0.0;stroke-linecap:butt;stroke-width:0.5;"/>
     </g>
     <g id="line2d_55">
      <g>
       <use style="stroke:#000000;stroke-linecap:butt;stroke-width:0.5;" x="386.506960227" xlink:href="#mcb557df647" y="188.718125"/>
      </g>
     </g>
     <g id="line2d_56">
      <g>
       <use style="stroke:#000000;stroke-linecap:butt;stroke-width:0.5;" x="386.506960227" xlink:href="#mdad270ee8e" y="21.318125"/>
      </g>
     </g>
     <g id="text_19">
      <!-- 40 -->
      <g transform="translate(380.721022727 200.14)scale(0.1 -0.1)">
       <use xlink:href="#BitstreamVeraSans-Roman-34"/>
       <use x="63.623046875" xlink:href="#BitstreamVeraSans-Roman-30"/>
      </g>
     </g>
    </g>
    <g id="xtick_14">
     <g id="line2d_57">
      <path clip-path="url(#p432674d547)" d="
M414.689 188.718
L414.689 21.3181" style="fill:none;stroke:#000000;stroke-dasharray:1.000000,3.000000;stroke-dashoffset:0.0;stroke-linecap:butt;stroke-width:0.5;"/>
     </g>
     <g id="line2d_58">
      <g>
       <use style="stroke:#000000;stroke-linecap:butt;stroke-width:0.5;" x="414.688778409" xlink:href="#mcb557df647" y="188.718125"/>
      </g>
     </g>
     <g id="line2d_59">
      <g>
       <use style="stroke:#000000;stroke-linecap:butt;stroke-width:0.5;" x="414.688778409" xlink:href="#mdad270ee8e" y="21.318125"/>
      </g>
     </g>
     <g id="text_20">
      <!-- 60 -->
      <g transform="translate(409.007528409 200.14)scale(0.1 -0.1)">
       <use xlink:href="#BitstreamVeraSans-Roman-36"/>
       <use x="63.623046875" xlink:href="#BitstreamVeraSans-Roman-30"/>
      </g>
     </g>
    </g>
    <g id="xtick_15">
     <g id="line2d_60">
      <path clip-path="url(#p432674d547)" d="
M442.871 188.718
L442.871 21.3181" style="fill:none;stroke:#000000;stroke-dasharray:1.000000,3.000000;stroke-dashoffset:0.0;stroke-linecap:butt;stroke-width:0.5;"/>
     </g>
     <g id="line2d_61">
      <g>
       <use style="stroke:#000000;stroke-linecap:butt;stroke-width:0.5;" x="442.870596591" xlink:href="#mcb557df647" y="188.718125"/>
      </g>
     </g>
     <g id="line2d_62">
      <g>
       <use style="stroke:#000000;stroke-linecap:butt;stroke-width:0.5;" x="442.870596591" xlink:href="#mdad270ee8e" y="21.318125"/>
      </g>
     </g>
     <g id="text_21">
      <!-- 80 -->
      <g transform="translate(437.179190341 200.14)scale(0.1 -0.1)">
       <use xlink:href="#BitstreamVeraSans-Roman-38"/>
       <use x="63.623046875" xlink:href="#BitstreamVeraSans-Roman-30"/>
      </g>
     </g>
    </g>
    <g id="xtick_16">
     <g id="line2d_63">
      <path clip-path="url(#p432674d547)" d="
M471.052 188.718
L471.052 21.3181" style="fill:none;stroke:#000000;stroke-dasharray:1.000000,3.000000;stroke-dashoffset:0.0;stroke-linecap:butt;stroke-width:0.5;"/>
     </g>
     <g id="line2d_64">
      <g>
       <use style="stroke:#000000;stroke-linecap:butt;stroke-width:0.5;" x="471.052414773" xlink:href="#mcb557df647" y="188.718125"/>
      </g>
     </g>
     <g id="line2d_65">
      <g>
       <use style="stroke:#000000;stroke-linecap:butt;stroke-width:0.5;" x="471.052414773" xlink:href="#mdad270ee8e" y="21.318125"/>
      </g>
     </g>
     <g id="text_22">
      <!-- 100 -->
      <g transform="translate(462.389914773 200.14)scale(0.1 -0.1)">
       <use xlink:href="#BitstreamVeraSans-Roman-31"/>
       <use x="63.623046875" xlink:href="#BitstreamVeraSans-Roman-30"/>
       <use x="127.24609375" xlink:href="#BitstreamVeraSans-Roman-30"/>
      </g>
     </g>
    </g>
    <g id="xtick_17">
     <g id="line2d_66">
      <path clip-path="url(#p432674d547)" d="
M499.234 188.718
L499.234 21.3181" style="fill:none;stroke:#000000;stroke-dasharray:1.000000,3.000000;stroke-dashoffset:0.0;stroke-linecap:butt;stroke-width:0.5;"/>
     </g>
     <g id="line2d_67">
      <g>
       <use style="stroke:#000000;stroke-linecap:butt;stroke-width:0.5;" x="499.234232955" xlink:href="#mcb557df647" y="188.718125"/>
      </g>
     </g>
     <g id="line2d_68">
      <g>
       <use style="stroke:#000000;stroke-linecap:butt;stroke-width:0.5;" x="499.234232955" xlink:href="#mdad270ee8e" y="21.318125"/>
      </g>
     </g>
     <g id="text_23">
      <!-- 120 -->
      <g transform="translate(490.571732955 200.14)scale(0.1 -0.1)">
       <use xlink:href="#BitstreamVeraSans-Roman-31"/>
       <use x="63.623046875" xlink:href="#BitstreamVeraSans-Roman-32"/>
       <use x="127.24609375" xlink:href="#BitstreamVeraSans-Roman-30"/>
      </g>
     </g>
    </g>
    <g id="xtick_18">
     <g id="line2d_69">
      <path clip-path="url(#p432674d547)" d="
M527.416 188.718
L527.416 21.3181" style="fill:none;stroke:#000000;stroke-dasharray:1.000000,3.000000;stroke-dashoffset:0.0;stroke-linecap:butt;stroke-width:0.5;"/>
     </g>
     <g id="line2d_70">
      <g>
       <use style="stroke:#000000;stroke-linecap:butt;stroke-width:0.5;" x="527.416051136" xlink:href="#mcb557df647" y="188.718125"/>
      </g>
     </g>
     <g id="line2d_71">
      <g>
       <use style="stroke:#000000;stroke-linecap:butt;stroke-width:0.5;" x="527.416051136" xlink:href="#mdad270ee8e" y="21.318125"/>
      </g>
     </g>
     <g id="text_24">
      <!-- 140 -->
      <g transform="translate(518.753551136 200.14)scale(0.1 -0.1)">
       <use xlink:href="#BitstreamVeraSans-Roman-31"/>
       <use x="63.623046875" xlink:href="#BitstreamVeraSans-Roman-34"/>
       <use x="127.24609375" xlink:href="#BitstreamVeraSans-Roman-30"/>
      </g>
     </g>
    </g>
    <g id="xtick_19">
     <g id="line2d_72">
      <path clip-path="url(#p432674d547)" d="
M555.598 188.718
L555.598 21.3181" style="fill:none;stroke:#000000;stroke-dasharray:1.000000,3.000000;stroke-dashoffset:0.0;stroke-linecap:butt;stroke-width:0.5;"/>
     </g>
     <g id="line2d_73">
      <g>
       <use style="stroke:#000000;stroke-linecap:butt;stroke-width:0.5;" x="555.597869318" xlink:href="#mcb557df647" y="188.718125"/>
      </g>
     </g>
     <g id="line2d_74">
      <g>
       <use style="stroke:#000000;stroke-linecap:butt;stroke-width:0.5;" x="555.597869318" xlink:href="#mdad270ee8e" y="21.318125"/>
      </g>
     </g>
     <g id="text_25">
      <!-- 160 -->
      <g transform="translate(546.935369318 200.14)scale(0.1 -0.1)">
       <use xlink:href="#BitstreamVeraSans-Roman-31"/>
       <use x="63.623046875" xlink:href="#BitstreamVeraSans-Roman-36"/>
       <use x="127.24609375" xlink:href="#BitstreamVeraSans-Roman-30"/>
      </g>
     </g>
    </g>
    <g id="xtick_20">
     <g id="line2d_75">
      <path clip-path="url(#p432674d547)" d="
M583.78 188.718
L583.78 21.3181" style="fill:none;stroke:#000000;stroke-dasharray:1.000000,3.000000;stroke-dashoffset:0.0;stroke-linecap:butt;stroke-width:0.5;"/>
     </g>
     <g id="line2d_76">
      <g>
       <use style="stroke:#000000;stroke-linecap:butt;stroke-width:0.5;" x="583.7796875" xlink:href="#mcb557df647" y="188.718125"/>
      </g>
     </g>
     <g id="line2d_77">
      <g>
       <use style="stroke:#000000;stroke-linecap:butt;stroke-width:0.5;" x="583.7796875" xlink:href="#mdad270ee8e" y="21.318125"/>
      </g>
     </g>
     <g id="text_26">
      <!-- 180 -->
      <g transform="translate(575.1171875 200.14)scale(0.1 -0.1)">
       <use xlink:href="#BitstreamVeraSans-Roman-31"/>
       <use x="63.623046875" xlink:href="#BitstreamVeraSans-Roman-38"/>
       <use x="127.24609375" xlink:href="#BitstreamVeraSans-Roman-30"/>
      </g>
     </g>
    </g>
   </g>
   <g id="matplotlib.axis_4">
    <g id="ytick_6">
     <g id="line2d_78">
      <path clip-path="url(#p432674d547)" d="
M330.143 188.718
L583.78 188.718" style="fill:none;stroke:#000000;stroke-dasharray:1.000000,3.000000;stroke-dashoffset:0.0;stroke-linecap:butt;stroke-width:0.5;"/>
     </g>
     <g id="line2d_79">
      <g>
       <use style="stroke:#000000;stroke-linecap:butt;stroke-width:0.5;" x="330.143323864" xlink:href="#mc8fcea1516" y="188.718125"/>
      </g>
     </g>
     <g id="line2d_80">
      <g>
       <use style="stroke:#000000;stroke-linecap:butt;stroke-width:0.5;" x="583.7796875" xlink:href="#m0d5b0a6425" y="188.718125"/>
      </g>
     </g>
     <g id="text_27">
      <!-- −7 -->
      <defs>
       <path d="
M10.5938 35.5
L73.1875 35.5
L73.1875 27.2031
L10.5938 27.2031
z
" id="BitstreamVeraSans-Roman-2212"/>
       <path d="
M8.20312 72.9062
L55.0781 72.9062
L55.0781 68.7031
L28.6094 0
L18.3125 0
L43.2188 64.5938
L8.20312 64.5938
z
" id="BitstreamVeraSans-Roman-37"/>
      </defs>
      <g transform="translate(313.315198864 192.3634375)scale(0.1 -0.1)">
       <use xlink:href="#BitstreamVeraSans-Roman-2212"/>
       <use x="83.7890625" xlink:href="#BitstreamVeraSans-Roman-37"/>
      </g>
     </g>
    </g>
    <g id="ytick_7">
     <g id="line2d_81">
      <path clip-path="url(#p432674d547)" d="
M330.143 167.793
L583.78 167.793" style="fill:none;stroke:#000000;stroke-dasharray:1.000000,3.000000;stroke-dashoffset:0.0;stroke-linecap:butt;stroke-width:0.5;"/>
     </g>
     <g id="line2d_82">
      <g>
       <use style="stroke:#000000;stroke-linecap:butt;stroke-width:0.5;" x="330.143323864" xlink:href="#mc8fcea1516" y="167.793125"/>
      </g>
     </g>
     <g id="line2d_83">
      <g>
       <use style="stroke:#000000;stroke-linecap:butt;stroke-width:0.5;" x="583.7796875" xlink:href="#m0d5b0a6425" y="167.793125"/>
      </g>
     </g>
     <g id="text_28">
      <!-- −6 -->
      <g transform="translate(313.090198864 171.43296875)scale(0.1 -0.1)">
       <use xlink:href="#BitstreamVeraSans-Roman-2212"/>
       <use x="83.7890625" xlink:href="#BitstreamVeraSans-Roman-36"/>
      </g>
     </g>
    </g>
    <g id="ytick_8">
     <g id="line2d_84">
      <path clip-path="url(#p432674d547)" d="
M330.143 146.868
L583.78 146.868" style="fill:none;stroke:#000000;stroke-dasharray:1.000000,3.000000;stroke-dashoffset:0.0;stroke-linecap:butt;stroke-width:0.5;"/>
     </g>
     <g id="line2d_85">
      <g>
       <use style="stroke:#000000;stroke-linecap:butt;stroke-width:0.5;" x="330.143323864" xlink:href="#mc8fcea1516" y="146.868125"/>
      </g>
     </g>
     <g id="line2d_86">
      <g>
       <use style="stroke:#000000;stroke-linecap:butt;stroke-width:0.5;" x="583.7796875" xlink:href="#m0d5b0a6425" y="146.868125"/>
      </g>
     </g>
     <g id="text_29">
      <!-- −5 -->
      <g transform="translate(313.333948864 150.44234375)scale(0.1 -0.1)">
       <use xlink:href="#BitstreamVeraSans-Roman-2212"/>
       <use x="83.7890625" xlink:href="#BitstreamVeraSans-Roman-35"/>
      </g>
     </g>
    </g>
    <g id="ytick_9">
     <g id="line2d_87">
      <path clip-path="url(#p432674d547)" d="
M330.143 125.943
L583.78 125.943" style="fill:none;stroke:#000000;stroke-dasharray:1.000000,3.000000;stroke-dashoffset:0.0;stroke-linecap:butt;stroke-width:0.5;"/>
     </g>
     <g id="line2d_88">
      <g>
       <use style="stroke:#000000;stroke-linecap:butt;stroke-width:0.5;" x="330.143323864" xlink:href="#mc8fcea1516" y="125.943125"/>
      </g>
     </g>
     <g id="line2d_89">
      <g>
       <use style="stroke:#000000;stroke-linecap:butt;stroke-width:0.5;" x="583.7796875" xlink:href="#m0d5b0a6425" y="125.943125"/>
      </g>
     </g>
     <g id="text_30">
      <!-- −4 -->
      <g transform="translate(313.021448864 129.5884375)scale(0.1 -0.1)">
       <use xlink:href="#BitstreamVeraSans-Roman-2212"/>
       <use x="83.7890625" xlink:href="#BitstreamVeraSans-Roman-34"/>
      </g>
     </g>
    </g>
    <g id="ytick_10">
     <g id="line2d_90">
      <path clip-path="url(#p432674d547)" d="
M330.143 105.018
L583.78 105.018" style="fill:none;stroke:#000000;stroke-dasharray:1.000000,3.000000;stroke-dashoffset:0.0;stroke-linecap:butt;stroke-width:0.5;"/>
     </g>
     <g id="line2d_91">
      <g>
       <use style="stroke:#000000;stroke-linecap:butt;stroke-width:0.5;" x="330.143323864" xlink:href="#mc8fcea1516" y="105.018125"/>
      </g>
     </g>
     <g id="line2d_92">
      <g>
       <use style="stroke:#000000;stroke-linecap:butt;stroke-width:0.5;" x="583.7796875" xlink:href="#m0d5b0a6425" y="105.018125"/>
      </g>
     </g>
     <g id="text_31">
      <!-- −3 -->
      <defs>
       <path d="
M40.5781 39.3125
Q47.6562 37.7969 51.625 33
Q55.6094 28.2188 55.6094 21.1875
Q55.6094 10.4062 48.1875 4.48438
Q40.7656 -1.42188 27.0938 -1.42188
Q22.5156 -1.42188 17.6562 -0.515625
Q12.7969 0.390625 7.625 2.20312
L7.625 11.7188
Q11.7188 9.32812 16.5938 8.10938
Q21.4844 6.89062 26.8125 6.89062
Q36.0781 6.89062 40.9375 10.5469
Q45.7969 14.2031 45.7969 21.1875
Q45.7969 27.6406 41.2812 31.2656
Q36.7656 34.9062 28.7188 34.9062
L20.2188 34.9062
L20.2188 43.0156
L29.1094 43.0156
Q36.375 43.0156 40.2344 45.9219
Q44.0938 48.8281 44.0938 54.2969
Q44.0938 59.9062 40.1094 62.9062
Q36.1406 65.9219 28.7188 65.9219
Q24.6562 65.9219 20.0156 65.0312
Q15.375 64.1562 9.8125 62.3125
L9.8125 71.0938
Q15.4375 72.6562 20.3438 73.4375
Q25.25 74.2188 29.5938 74.2188
Q40.8281 74.2188 47.3594 69.1094
Q53.9062 64.0156 53.9062 55.3281
Q53.9062 49.2656 50.4375 45.0938
Q46.9688 40.9219 40.5781 39.3125" id="BitstreamVeraSans-Roman-33"/>
      </defs>
      <g transform="translate(313.262073864 108.65796875)scale(0.1 -0.1)">
       <use xlink:href="#BitstreamVeraSans-Roman-2212"/>
       <use x="83.7890625" xlink:href="#BitstreamVeraSans-Roman-33"/>
      </g>
     </g>
    </g>
    <g id="ytick_11">
     <g id="line2d_93">
      <path clip-path="url(#p432674d547)" d="
M330.143 84.0931
L583.78 84.0931" style="fill:none;stroke:#000000;stroke-dasharray:1.000000,3.000000;stroke-dashoffset:0.0;stroke-linecap:butt;stroke-width:0.5;"/>
     </g>
     <g id="line2d_94">
      <g>
       <use style="stroke:#000000;stroke-linecap:butt;stroke-width:0.5;" x="330.143323864" xlink:href="#mc8fcea1516" y="84.093125"/>
      </g>
     </g>
     <g id="line2d_95">
      <g>
       <use style="stroke:#000000;stroke-linecap:butt;stroke-width:0.5;" x="583.7796875" xlink:href="#m0d5b0a6425" y="84.093125"/>
      </g>
     </g>
     <g id="text_32">
      <!-- −2 -->
      <g transform="translate(313.462073864 87.8040625)scale(0.1 -0.1)">
       <use xlink:href="#BitstreamVeraSans-Roman-2212"/>
       <use x="83.7890625" xlink:href="#BitstreamVeraSans-Roman-32"/>
      </g>
     </g>
    </g>
    <g id="ytick_12">
     <g id="line2d_96">
      <path clip-path="url(#p432674d547)" d="
M330.143 63.1681
L583.78 63.1681" style="fill:none;stroke:#000000;stroke-dasharray:1.000000,3.000000;stroke-dashoffset:0.0;stroke-linecap:butt;stroke-width:0.5;"/>
     </g>
     <g id="line2d_97">
      <g>
       <use style="stroke:#000000;stroke-linecap:butt;stroke-width:0.5;" x="330.143323864" xlink:href="#mc8fcea1516" y="63.168125"/>
      </g>
     </g>
     <g id="line2d_98">
      <g>
       <use style="stroke:#000000;stroke-linecap:butt;stroke-width:0.5;" x="583.7796875" xlink:href="#m0d5b0a6425" y="63.168125"/>
      </g>
     </g>
     <g id="text_33">
      <!-- −1 -->
      <g transform="translate(313.383948864 66.8134375)scale(0.1 -0.1)">
       <use xlink:href="#BitstreamVeraSans-Roman-2212"/>
       <use x="83.7890625" xlink:href="#BitstreamVeraSans-Roman-31"/>
      </g>
     </g>
    </g>
    <g id="ytick_13">
     <g id="line2d_99">
      <path clip-path="url(#p432674d547)" d="
M330.143 42.2431
L583.78 42.2431" style="fill:none;stroke:#000000;stroke-dasharray:1.000000,3.000000;stroke-dashoffset:0.0;stroke-linecap:butt;stroke-width:0.5;"/>
     </g>
     <g id="line2d_100">
      <g>
       <use style="stroke:#000000;stroke-linecap:butt;stroke-width:0.5;" x="330.143323864" xlink:href="#mc8fcea1516" y="42.243125"/>
      </g>
     </g>
     <g id="line2d_101">
      <g>
       <use style="stroke:#000000;stroke-linecap:butt;stroke-width:0.5;" x="583.7796875" xlink:href="#m0d5b0a6425" y="42.243125"/>
      </g>
     </g>
     <g id="text_34">
      <!-- 0 -->
      <g transform="translate(321.104261364 45.88296875)scale(0.1 -0.1)">
       <use xlink:href="#BitstreamVeraSans-Roman-30"/>
      </g>
     </g>
    </g>
    <g id="ytick_14">
     <g id="line2d_102">
      <path clip-path="url(#p432674d547)" d="
M330.143 21.3181
L583.78 21.3181" style="fill:none;stroke:#000000;stroke-dasharray:1.000000,3.000000;stroke-dashoffset:0.0;stroke-linecap:butt;stroke-width:0.5;"/>
     </g>
     <g id="line2d_103">
      <g>
       <use style="stroke:#000000;stroke-linecap:butt;stroke-width:0.5;" x="330.143323864" xlink:href="#mc8fcea1516" y="21.318125"/>
      </g>
     </g>
     <g id="line2d_104">
      <g>
       <use style="stroke:#000000;stroke-linecap:butt;stroke-width:0.5;" x="583.7796875" xlink:href="#m0d5b0a6425" y="21.318125"/>
      </g>
     </g>
     <g id="text_35">
      <!-- 1 -->
      <g transform="translate(321.802698864 24.9634375)scale(0.1 -0.1)">
       <use xlink:href="#BitstreamVeraSans-Roman-31"/>
      </g>
     </g>
    </g>
   </g>
   <g id="patch_8">
    <path d="
M330.143 21.3181
L583.78 21.3181" style="fill:none;stroke:#000000;"/>
   </g>
   <g id="patch_9">
    <path d="
M583.78 188.718
L583.78 21.3181" style="fill:none;stroke:#000000;"/>
   </g>
   <g id="patch_10">
    <path d="
M330.143 188.718
L583.78 188.718" style="fill:none;stroke:#000000;"/>
   </g>
   <g id="patch_11">
    <path d="
M330.143 188.718
L330.143 21.3181" style="fill:none;stroke:#000000;"/>
   </g>
   <g id="text_36">
    <!-- log(summedSquaredError) -->
    <defs>
     <path d="
M8.01562 75.875
L15.8281 75.875
Q23.1406 64.3594 26.7812 53.3125
Q30.4219 42.2812 30.4219 31.3906
Q30.4219 20.4531 26.7812 9.375
Q23.1406 -1.70312 15.8281 -13.1875
L8.01562 -13.1875
Q14.5 -2 17.7031 9.0625
Q20.9062 20.125 20.9062 31.3906
Q20.9062 42.6719 17.7031 53.6562
Q14.5 64.6562 8.01562 75.875" id="BitstreamVeraSans-Roman-29"/>
     <path d="
M31 75.875
Q24.4688 64.6562 21.2812 53.6562
Q18.1094 42.6719 18.1094 31.3906
Q18.1094 20.125 21.3125 9.0625
Q24.5156 -2 31 -13.1875
L23.1875 -13.1875
Q15.875 -1.70312 12.2344 9.375
Q8.59375 20.4531 8.59375 31.3906
Q8.59375 42.2812 12.2031 53.3125
Q15.8281 64.3594 23.1875 75.875
z
" id="BitstreamVeraSans-Roman-28"/>
     <path d="
M45.4062 27.9844
Q45.4062 37.75 41.375 43.1094
Q37.3594 48.4844 30.0781 48.4844
Q22.8594 48.4844 18.8281 43.1094
Q14.7969 37.75 14.7969 27.9844
Q14.7969 18.2656 18.8281 12.8906
Q22.8594 7.51562 30.0781 7.51562
Q37.3594 7.51562 41.375 12.8906
Q45.4062 18.2656 45.4062 27.9844
M54.3906 6.78125
Q54.3906 -7.17188 48.1875 -13.9844
Q42 -20.7969 29.2031 -20.7969
Q24.4688 -20.7969 20.2656 -20.0938
Q16.0625 -19.3906 12.1094 -17.9219
L12.1094 -9.1875
Q16.0625 -11.3281 19.9219 -12.3438
Q23.7812 -13.375 27.7812 -13.375
Q36.625 -13.375 41.0156 -8.76562
Q45.4062 -4.15625 45.4062 5.17188
L45.4062 9.625
Q42.625 4.78125 38.2812 2.39062
Q33.9375 0 27.875 0
Q17.8281 0 11.6719 7.65625
Q5.51562 15.3281 5.51562 27.9844
Q5.51562 40.6719 11.6719 48.3281
Q17.8281 56 27.875 56
Q33.9375 56 38.2812 53.6094
Q42.625 51.2188 45.4062 46.3906
L45.4062 54.6875
L54.3906 54.6875
z
" id="BitstreamVeraSans-Roman-67"/>
     <path d="
M9.42188 75.9844
L18.4062 75.9844
L18.4062 0
L9.42188 0
z
" id="BitstreamVeraSans-Roman-6c"/>
    </defs>
    <g transform="translate(378.543380682 16.318125)scale(0.12 -0.12)">
     <use xlink:href="#BitstreamVeraSans-Roman-6c"/>
     <use x="27.783203125" xlink:href="#BitstreamVeraSans-Roman-6f"/>
     <use x="88.96484375" xlink:href="#BitstreamVeraSans-Roman-67"/>
     <use x="152.44140625" xlink:href="#BitstreamVeraSans-Roman-28"/>
     <use x="191.455078125" xlink:href="#BitstreamVeraSans-Roman-73"/>
     <use x="243.5546875" xlink:href="#BitstreamVeraSans-Roman-75"/>
     <use x="306.93359375" xlink:href="#BitstreamVeraSans-Roman-6d"/>
     <use x="404.345703125" xlink:href="#BitstreamVeraSans-Roman-6d"/>
     <use x="501.7578125" xlink:href="#BitstreamVeraSans-Roman-65"/>
     <use x="563.28125" xlink:href="#BitstreamVeraSans-Roman-64"/>
     <use x="626.7578125" xlink:href="#BitstreamVeraSans-Roman-53"/>
     <use x="690.234375" xlink:href="#BitstreamVeraSans-Roman-71"/>
     <use x="753.7109375" xlink:href="#BitstreamVeraSans-Roman-75"/>
     <use x="817.08984375" xlink:href="#BitstreamVeraSans-Roman-61"/>
     <use x="878.369140625" xlink:href="#BitstreamVeraSans-Roman-72"/>
     <use x="917.232421875" xlink:href="#BitstreamVeraSans-Roman-65"/>
     <use x="978.755859375" xlink:href="#BitstreamVeraSans-Roman-64"/>
     <use x="1042.23242188" xlink:href="#BitstreamVeraSans-Roman-45"/>
     <use x="1105.41601562" xlink:href="#BitstreamVeraSans-Roman-72"/>
     <use x="1144.77929688" xlink:href="#BitstreamVeraSans-Roman-72"/>
     <use x="1183.64257812" xlink:href="#BitstreamVeraSans-Roman-6f"/>
     <use x="1244.82421875" xlink:href="#BitstreamVeraSans-Roman-72"/>
     <use x="1285.9375" xlink:href="#BitstreamVeraSans-Roman-29"/>
    </g>
   </g>
  </g>
 </g>
 <defs>
  <clipPath id="p8cd45f1e13">
   <rect height="167.4" width="253.636363636" x="25.7796875" y="21.318125"/>
  </clipPath>
  <clipPath id="p432674d547">
   <rect height="167.4" width="253.636363636" x="330.143323864" y="21.318125"/>
  </clipPath>
 </defs>
</svg>
