<?xml version="1.0" encoding="utf-8" standalone="no"?>
<!DOCTYPE svg PUBLIC "-//W3C//DTD SVG 1.1//EN"
  "http://www.w3.org/Graphics/SVG/1.1/DTD/svg11.dtd">
<!-- Created with matplotlib (http://matplotlib.org/) -->
<svg height="612pt" version="1.1" viewBox="0 0 894 612" width="894pt" xmlns="http://www.w3.org/2000/svg" xmlns:xlink="http://www.w3.org/1999/xlink">
 <defs>
  <style type="text/css">
*{stroke-linecap:square;stroke-linejoin:round;}
  </style>
 </defs>
 <g id="figure_1">
  <g id="patch_1">
   <path d="
M0 612.76
L894.131 612.76
L894.131 0
L0 0
z
" style="fill:#ffffff;"/>
  </g>
  <g id="axes_1">
   <g id="patch_2">
    <path d="
M49.9313 579.318
L886.931 579.318
L886.931 21.3181
L49.9313 21.3181
z
" style="fill:#ffffff;"/>
   </g>
   <g id="line2d_1">
    <path clip-path="url(#p0c17b9440c)" d="
M49.9313 66.2371
L50.7683 249.54
L51.6053 330.45
L52.4423 333.24
L53.2793 358.35
L54.1163 442.05
L54.9533 447.351
L55.7903 463.812
L56.6273 464.928
L57.4643 481.668
L58.3013 483.9
L59.1383 502.872
L59.9753 507.894
L60.8123 510.963
L61.6493 511.242
L63.3233 515.985
L64.1603 516.543
L64.9973 519.333
L65.8342 523.797
L66.6713 530.214
L67.5083 530.493
L68.3453 531.33
L69.1823 532.446
L70.0192 534.678
L70.8563 536.352
L71.6933 537.468
L72.5303 539.142
L73.3673 540.537
L74.2043 542.769
L75.0413 544.164
L75.8783 544.164
L77.5523 544.722
L78.3893 545.28
L79.2263 546.675
L80.0633 547.233
L80.9002 548.07
L81.7373 551.418
L82.5743 551.418
L83.4112 551.976
L85.0853 551.976
L85.9223 552.255
L86.7593 553.092
L87.5962 553.092
L88.4333 553.929
L89.2703 554.208
L90.1073 554.208
L90.9443 554.766
L92.6183 555.324
L93.4553 555.324
L94.2922 556.719
L95.1293 556.719
L95.9663 557.277
L96.8033 557.277
L97.6403 557.556
L98.4772 558.672
L100.151 558.672
L100.988 558.951
L101.825 558.951
L102.662 559.788
L103.499 560.067
L104.336 560.625
L105.173 560.625
L106.01 560.904
L106.847 560.904
L108.521 561.462
L109.358 561.462
L110.195 561.741
L111.032 562.578
L112.706 562.578
L113.543 563.415
L114.38 563.415
L115.217 563.973
L116.054 564.252
L116.891 564.252
L117.728 564.531
L119.402 564.531
L121.076 565.089
L122.75 565.089
L123.587 565.368
L124.424 565.368
L126.098 565.926
L128.609 565.926
L129.446 566.205
L130.283 566.205
L131.12 566.484
L132.794 566.484
L134.468 567.042
L136.142 567.042
L137.816 567.6
L139.49 567.6
L140.327 567.879
L142.838 567.879
L143.675 568.158
L145.349 568.158
L146.186 568.437
L147.86 568.437
L148.697 568.995
L152.045 568.995
L152.882 569.274
L154.556 569.274
L156.23 569.832
L160.415 569.832
L161.252 570.111
L162.926 570.111
L163.763 570.39
L166.274 570.39
L167.111 570.669
L167.948 570.669
L168.785 570.948
L170.459 570.948
L171.296 571.227
L173.807 571.227
L174.644 571.506
L177.992 571.506
L178.829 571.785
L183.014 571.785
L183.851 572.064
L188.873 572.064
L189.71 572.343
L193.058 572.343
L193.895 572.622
L194.732 572.622
L195.569 572.901
L199.754 572.901
L200.591 573.18
L204.776 573.18
L205.613 573.459
L208.961 573.459
L209.798 573.738
L215.657 573.738
L216.494 574.017
L218.168 574.017
L219.005 574.296
L226.538 574.296
L227.375 574.575
L228.212 574.575
L229.049 574.854
L234.908 574.854
L235.745 575.133
L239.093 575.133
L239.93 575.412
L248.3 575.412
L249.137 575.691
L252.485 575.691
L253.322 575.97
L265.04 575.97
L265.877 576.249
L275.921 576.249
L276.758 576.528
L290.987 576.528
L291.824 576.807
L305.216 576.807
L306.053 577.086
L316.934 577.086
L317.771 577.365
L332.837 577.365
L333.674 577.644
L360.458 577.644
L361.295 577.923
L392.264 577.923
L393.101 578.202
L435.788 578.202
L436.625 578.481
L511.955 578.481
L512.792 578.76
L622.439 578.76
L623.276 579.039
L808.253 579.039
L808.253 579.039" style="fill:none;stroke:#0000ff;"/>
   </g>
   <g id="matplotlib.axis_1">
    <g id="xtick_1">
     <g id="line2d_2">
      <defs>
       <path d="
M0 0
L0 -4" id="mcb557df647" style="stroke:#000000;stroke-linecap:butt;stroke-width:0.5;"/>
      </defs>
      <g>
       <use style="stroke:#000000;stroke-linecap:butt;stroke-width:0.5;" x="49.93125" xlink:href="#mcb557df647" y="579.318125"/>
      </g>
     </g>
     <g id="line2d_3">
      <defs>
       <path d="
M0 0
L0 4" id="mdad270ee8e" style="stroke:#000000;stroke-linecap:butt;stroke-width:0.5;"/>
      </defs>
      <g>
       <use style="stroke:#000000;stroke-linecap:butt;stroke-width:0.5;" x="49.93125" xlink:href="#mdad270ee8e" y="21.318125"/>
      </g>
     </g>
     <g id="text_1">
      <!-- 0 -->
      <defs>
       <path d="
M31.7812 66.4062
Q24.1719 66.4062 20.3281 58.9062
Q16.5 51.4219 16.5 36.375
Q16.5 21.3906 20.3281 13.8906
Q24.1719 6.39062 31.7812 6.39062
Q39.4531 6.39062 43.2812 13.8906
Q47.125 21.3906 47.125 36.375
Q47.125 51.4219 43.2812 58.9062
Q39.4531 66.4062 31.7812 66.4062
M31.7812 74.2188
Q44.0469 74.2188 50.5156 64.5156
Q56.9844 54.8281 56.9844 36.375
Q56.9844 17.9688 50.5156 8.26562
Q44.0469 -1.42188 31.7812 -1.42188
Q19.5312 -1.42188 13.0625 8.26562
Q6.59375 17.9688 6.59375 36.375
Q6.59375 54.8281 13.0625 64.5156
Q19.5312 74.2188 31.7812 74.2188" id="BitstreamVeraSans-Roman-30"/>
      </defs>
      <g transform="translate(47.41171875 590.74)scale(0.1 -0.1)">
       <use xlink:href="#BitstreamVeraSans-Roman-30"/>
      </g>
     </g>
    </g>
    <g id="xtick_2">
     <g id="line2d_4">
      <g>
       <use style="stroke:#000000;stroke-linecap:butt;stroke-width:0.5;" x="133.63125" xlink:href="#mcb557df647" y="579.318125"/>
      </g>
     </g>
     <g id="line2d_5">
      <g>
       <use style="stroke:#000000;stroke-linecap:butt;stroke-width:0.5;" x="133.63125" xlink:href="#mdad270ee8e" y="21.318125"/>
      </g>
     </g>
     <g id="text_2">
      <!-- 100 -->
      <defs>
       <path d="
M12.4062 8.29688
L28.5156 8.29688
L28.5156 63.9219
L10.9844 60.4062
L10.9844 69.3906
L28.4219 72.9062
L38.2812 72.9062
L38.2812 8.29688
L54.3906 8.29688
L54.3906 0
L12.4062 0
z
" id="BitstreamVeraSans-Roman-31"/>
      </defs>
      <g transform="translate(124.96875 590.74)scale(0.1 -0.1)">
       <use xlink:href="#BitstreamVeraSans-Roman-31"/>
       <use x="63.623046875" xlink:href="#BitstreamVeraSans-Roman-30"/>
       <use x="127.24609375" xlink:href="#BitstreamVeraSans-Roman-30"/>
      </g>
     </g>
    </g>
    <g id="xtick_3">
     <g id="line2d_6">
      <g>
       <use style="stroke:#000000;stroke-linecap:butt;stroke-width:0.5;" x="217.33125" xlink:href="#mcb557df647" y="579.318125"/>
      </g>
     </g>
     <g id="line2d_7">
      <g>
       <use style="stroke:#000000;stroke-linecap:butt;stroke-width:0.5;" x="217.33125" xlink:href="#mdad270ee8e" y="21.318125"/>
      </g>
     </g>
     <g id="text_3">
      <!-- 200 -->
      <defs>
       <path d="
M19.1875 8.29688
L53.6094 8.29688
L53.6094 0
L7.32812 0
L7.32812 8.29688
Q12.9375 14.1094 22.625 23.8906
Q32.3281 33.6875 34.8125 36.5312
Q39.5469 41.8438 41.4219 45.5312
Q43.3125 49.2188 43.3125 52.7812
Q43.3125 58.5938 39.2344 62.25
Q35.1562 65.9219 28.6094 65.9219
Q23.9688 65.9219 18.8125 64.3125
Q13.6719 62.7031 7.8125 59.4219
L7.8125 69.3906
Q13.7656 71.7812 18.9375 73
Q24.125 74.2188 28.4219 74.2188
Q39.75 74.2188 46.4844 68.5469
Q53.2188 62.8906 53.2188 53.4219
Q53.2188 48.9219 51.5312 44.8906
Q49.8594 40.875 45.4062 35.4062
Q44.1875 33.9844 37.6406 27.2188
Q31.1094 20.4531 19.1875 8.29688" id="BitstreamVeraSans-Roman-32"/>
      </defs>
      <g transform="translate(208.4859375 590.74)scale(0.1 -0.1)">
       <use xlink:href="#BitstreamVeraSans-Roman-32"/>
       <use x="63.623046875" xlink:href="#BitstreamVeraSans-Roman-30"/>
       <use x="127.24609375" xlink:href="#BitstreamVeraSans-Roman-30"/>
      </g>
     </g>
    </g>
    <g id="xtick_4">
     <g id="line2d_8">
      <g>
       <use style="stroke:#000000;stroke-linecap:butt;stroke-width:0.5;" x="301.03125" xlink:href="#mcb557df647" y="579.318125"/>
      </g>
     </g>
     <g id="line2d_9">
      <g>
       <use style="stroke:#000000;stroke-linecap:butt;stroke-width:0.5;" x="301.03125" xlink:href="#mdad270ee8e" y="21.318125"/>
      </g>
     </g>
     <g id="text_4">
      <!-- 300 -->
      <defs>
       <path d="
M40.5781 39.3125
Q47.6562 37.7969 51.625 33
Q55.6094 28.2188 55.6094 21.1875
Q55.6094 10.4062 48.1875 4.48438
Q40.7656 -1.42188 27.0938 -1.42188
Q22.5156 -1.42188 17.6562 -0.515625
Q12.7969 0.390625 7.625 2.20312
L7.625 11.7188
Q11.7188 9.32812 16.5938 8.10938
Q21.4844 6.89062 26.8125 6.89062
Q36.0781 6.89062 40.9375 10.5469
Q45.7969 14.2031 45.7969 21.1875
Q45.7969 27.6406 41.2812 31.2656
Q36.7656 34.9062 28.7188 34.9062
L20.2188 34.9062
L20.2188 43.0156
L29.1094 43.0156
Q36.375 43.0156 40.2344 45.9219
Q44.0938 48.8281 44.0938 54.2969
Q44.0938 59.9062 40.1094 62.9062
Q36.1406 65.9219 28.7188 65.9219
Q24.6562 65.9219 20.0156 65.0312
Q15.375 64.1562 9.8125 62.3125
L9.8125 71.0938
Q15.4375 72.6562 20.3438 73.4375
Q25.25 74.2188 29.5938 74.2188
Q40.8281 74.2188 47.3594 69.1094
Q53.9062 64.0156 53.9062 55.3281
Q53.9062 49.2656 50.4375 45.0938
Q46.9688 40.9219 40.5781 39.3125" id="BitstreamVeraSans-Roman-33"/>
      </defs>
      <g transform="translate(292.20078125 590.74)scale(0.1 -0.1)">
       <use xlink:href="#BitstreamVeraSans-Roman-33"/>
       <use x="63.623046875" xlink:href="#BitstreamVeraSans-Roman-30"/>
       <use x="127.24609375" xlink:href="#BitstreamVeraSans-Roman-30"/>
      </g>
     </g>
    </g>
    <g id="xtick_5">
     <g id="line2d_10">
      <g>
       <use style="stroke:#000000;stroke-linecap:butt;stroke-width:0.5;" x="384.73125" xlink:href="#mcb557df647" y="579.318125"/>
      </g>
     </g>
     <g id="line2d_11">
      <g>
       <use style="stroke:#000000;stroke-linecap:butt;stroke-width:0.5;" x="384.73125" xlink:href="#mdad270ee8e" y="21.318125"/>
      </g>
     </g>
     <g id="text_5">
      <!-- 400 -->
      <defs>
       <path d="
M37.7969 64.3125
L12.8906 25.3906
L37.7969 25.3906
z

M35.2031 72.9062
L47.6094 72.9062
L47.6094 25.3906
L58.0156 25.3906
L58.0156 17.1875
L47.6094 17.1875
L47.6094 0
L37.7969 0
L37.7969 17.1875
L4.89062 17.1875
L4.89062 26.7031
z
" id="BitstreamVeraSans-Roman-34"/>
      </defs>
      <g transform="translate(375.7640625 590.74)scale(0.1 -0.1)">
       <use xlink:href="#BitstreamVeraSans-Roman-34"/>
       <use x="63.623046875" xlink:href="#BitstreamVeraSans-Roman-30"/>
       <use x="127.24609375" xlink:href="#BitstreamVeraSans-Roman-30"/>
      </g>
     </g>
    </g>
    <g id="xtick_6">
     <g id="line2d_12">
      <g>
       <use style="stroke:#000000;stroke-linecap:butt;stroke-width:0.5;" x="468.43125" xlink:href="#mcb557df647" y="579.318125"/>
      </g>
     </g>
     <g id="line2d_13">
      <g>
       <use style="stroke:#000000;stroke-linecap:butt;stroke-width:0.5;" x="468.43125" xlink:href="#mdad270ee8e" y="21.318125"/>
      </g>
     </g>
     <g id="text_6">
      <!-- 500 -->
      <defs>
       <path d="
M10.7969 72.9062
L49.5156 72.9062
L49.5156 64.5938
L19.8281 64.5938
L19.8281 46.7344
Q21.9688 47.4688 24.1094 47.8281
Q26.2656 48.1875 28.4219 48.1875
Q40.625 48.1875 47.75 41.5
Q54.8906 34.8125 54.8906 23.3906
Q54.8906 11.625 47.5625 5.09375
Q40.2344 -1.42188 26.9062 -1.42188
Q22.3125 -1.42188 17.5469 -0.640625
Q12.7969 0.140625 7.71875 1.70312
L7.71875 11.625
Q12.1094 9.23438 16.7969 8.0625
Q21.4844 6.89062 26.7031 6.89062
Q35.1562 6.89062 40.0781 11.3281
Q45.0156 15.7656 45.0156 23.3906
Q45.0156 31 40.0781 35.4375
Q35.1562 39.8906 26.7031 39.8906
Q22.75 39.8906 18.8125 39.0156
Q14.8906 38.1406 10.7969 36.2812
z
" id="BitstreamVeraSans-Roman-35"/>
      </defs>
      <g transform="translate(459.60546875 590.74)scale(0.1 -0.1)">
       <use xlink:href="#BitstreamVeraSans-Roman-35"/>
       <use x="63.623046875" xlink:href="#BitstreamVeraSans-Roman-30"/>
       <use x="127.24609375" xlink:href="#BitstreamVeraSans-Roman-30"/>
      </g>
     </g>
    </g>
    <g id="xtick_7">
     <g id="line2d_14">
      <g>
       <use style="stroke:#000000;stroke-linecap:butt;stroke-width:0.5;" x="552.13125" xlink:href="#mcb557df647" y="579.318125"/>
      </g>
     </g>
     <g id="line2d_15">
      <g>
       <use style="stroke:#000000;stroke-linecap:butt;stroke-width:0.5;" x="552.13125" xlink:href="#mdad270ee8e" y="21.318125"/>
      </g>
     </g>
     <g id="text_7">
      <!-- 600 -->
      <defs>
       <path d="
M33.0156 40.375
Q26.375 40.375 22.4844 35.8281
Q18.6094 31.2969 18.6094 23.3906
Q18.6094 15.5312 22.4844 10.9531
Q26.375 6.39062 33.0156 6.39062
Q39.6562 6.39062 43.5312 10.9531
Q47.4062 15.5312 47.4062 23.3906
Q47.4062 31.2969 43.5312 35.8281
Q39.6562 40.375 33.0156 40.375
M52.5938 71.2969
L52.5938 62.3125
Q48.875 64.0625 45.0938 64.9844
Q41.3125 65.9219 37.5938 65.9219
Q27.8281 65.9219 22.6719 59.3281
Q17.5312 52.7344 16.7969 39.4062
Q19.6719 43.6562 24.0156 45.9219
Q28.375 48.1875 33.5938 48.1875
Q44.5781 48.1875 50.9531 41.5156
Q57.3281 34.8594 57.3281 23.3906
Q57.3281 12.1562 50.6875 5.35938
Q44.0469 -1.42188 33.0156 -1.42188
Q20.3594 -1.42188 13.6719 8.26562
Q6.98438 17.9688 6.98438 36.375
Q6.98438 53.6562 15.1875 63.9375
Q23.3906 74.2188 37.2031 74.2188
Q40.9219 74.2188 44.7031 73.4844
Q48.4844 72.75 52.5938 71.2969" id="BitstreamVeraSans-Roman-36"/>
      </defs>
      <g transform="translate(543.26875 590.74)scale(0.1 -0.1)">
       <use xlink:href="#BitstreamVeraSans-Roman-36"/>
       <use x="63.623046875" xlink:href="#BitstreamVeraSans-Roman-30"/>
       <use x="127.24609375" xlink:href="#BitstreamVeraSans-Roman-30"/>
      </g>
     </g>
    </g>
    <g id="xtick_8">
     <g id="line2d_16">
      <g>
       <use style="stroke:#000000;stroke-linecap:butt;stroke-width:0.5;" x="635.83125" xlink:href="#mcb557df647" y="579.318125"/>
      </g>
     </g>
     <g id="line2d_17">
      <g>
       <use style="stroke:#000000;stroke-linecap:butt;stroke-width:0.5;" x="635.83125" xlink:href="#mdad270ee8e" y="21.318125"/>
      </g>
     </g>
     <g id="text_8">
      <!-- 700 -->
      <defs>
       <path d="
M8.20312 72.9062
L55.0781 72.9062
L55.0781 68.7031
L28.6094 0
L18.3125 0
L43.2188 64.5938
L8.20312 64.5938
z
" id="BitstreamVeraSans-Roman-37"/>
      </defs>
      <g transform="translate(627.0296875 590.74)scale(0.1 -0.1)">
       <use xlink:href="#BitstreamVeraSans-Roman-37"/>
       <use x="63.623046875" xlink:href="#BitstreamVeraSans-Roman-30"/>
       <use x="127.24609375" xlink:href="#BitstreamVeraSans-Roman-30"/>
      </g>
     </g>
    </g>
    <g id="xtick_9">
     <g id="line2d_18">
      <g>
       <use style="stroke:#000000;stroke-linecap:butt;stroke-width:0.5;" x="719.53125" xlink:href="#mcb557df647" y="579.318125"/>
      </g>
     </g>
     <g id="line2d_19">
      <g>
       <use style="stroke:#000000;stroke-linecap:butt;stroke-width:0.5;" x="719.53125" xlink:href="#mdad270ee8e" y="21.318125"/>
      </g>
     </g>
     <g id="text_9">
      <!-- 800 -->
      <defs>
       <path d="
M31.7812 34.625
Q24.75 34.625 20.7188 30.8594
Q16.7031 27.0938 16.7031 20.5156
Q16.7031 13.9219 20.7188 10.1562
Q24.75 6.39062 31.7812 6.39062
Q38.8125 6.39062 42.8594 10.1719
Q46.9219 13.9688 46.9219 20.5156
Q46.9219 27.0938 42.8906 30.8594
Q38.875 34.625 31.7812 34.625
M21.9219 38.8125
Q15.5781 40.375 12.0312 44.7188
Q8.5 49.0781 8.5 55.3281
Q8.5 64.0625 14.7188 69.1406
Q20.9531 74.2188 31.7812 74.2188
Q42.6719 74.2188 48.875 69.1406
Q55.0781 64.0625 55.0781 55.3281
Q55.0781 49.0781 51.5312 44.7188
Q48 40.375 41.7031 38.8125
Q48.8281 37.1562 52.7969 32.3125
Q56.7812 27.4844 56.7812 20.5156
Q56.7812 9.90625 50.3125 4.23438
Q43.8438 -1.42188 31.7812 -1.42188
Q19.7344 -1.42188 13.25 4.23438
Q6.78125 9.90625 6.78125 20.5156
Q6.78125 27.4844 10.7812 32.3125
Q14.7969 37.1562 21.9219 38.8125
M18.3125 54.3906
Q18.3125 48.7344 21.8438 45.5625
Q25.3906 42.3906 31.7812 42.3906
Q38.1406 42.3906 41.7188 45.5625
Q45.3125 48.7344 45.3125 54.3906
Q45.3125 60.0625 41.7188 63.2344
Q38.1406 66.4062 31.7812 66.4062
Q25.3906 66.4062 21.8438 63.2344
Q18.3125 60.0625 18.3125 54.3906" id="BitstreamVeraSans-Roman-38"/>
      </defs>
      <g transform="translate(710.65859375 590.74)scale(0.1 -0.1)">
       <use xlink:href="#BitstreamVeraSans-Roman-38"/>
       <use x="63.623046875" xlink:href="#BitstreamVeraSans-Roman-30"/>
       <use x="127.24609375" xlink:href="#BitstreamVeraSans-Roman-30"/>
      </g>
     </g>
    </g>
    <g id="xtick_10">
     <g id="line2d_20">
      <g>
       <use style="stroke:#000000;stroke-linecap:butt;stroke-width:0.5;" x="803.23125" xlink:href="#mcb557df647" y="579.318125"/>
      </g>
     </g>
     <g id="line2d_21">
      <g>
       <use style="stroke:#000000;stroke-linecap:butt;stroke-width:0.5;" x="803.23125" xlink:href="#mdad270ee8e" y="21.318125"/>
      </g>
     </g>
     <g id="text_10">
      <!-- 900 -->
      <defs>
       <path d="
M10.9844 1.51562
L10.9844 10.5
Q14.7031 8.73438 18.5 7.8125
Q22.3125 6.89062 25.9844 6.89062
Q35.75 6.89062 40.8906 13.4531
Q46.0469 20.0156 46.7812 33.4062
Q43.9531 29.2031 39.5938 26.9531
Q35.25 24.7031 29.9844 24.7031
Q19.0469 24.7031 12.6719 31.3125
Q6.29688 37.9375 6.29688 49.4219
Q6.29688 60.6406 12.9375 67.4219
Q19.5781 74.2188 30.6094 74.2188
Q43.2656 74.2188 49.9219 64.5156
Q56.5938 54.8281 56.5938 36.375
Q56.5938 19.1406 48.4062 8.85938
Q40.2344 -1.42188 26.4219 -1.42188
Q22.7031 -1.42188 18.8906 -0.6875
Q15.0938 0.046875 10.9844 1.51562
M30.6094 32.4219
Q37.25 32.4219 41.125 36.9531
Q45.0156 41.5 45.0156 49.4219
Q45.0156 57.2812 41.125 61.8438
Q37.25 66.4062 30.6094 66.4062
Q23.9688 66.4062 20.0938 61.8438
Q16.2188 57.2812 16.2188 49.4219
Q16.2188 41.5 20.0938 36.9531
Q23.9688 32.4219 30.6094 32.4219" id="BitstreamVeraSans-Roman-39"/>
      </defs>
      <g transform="translate(794.334375 590.74)scale(0.1 -0.1)">
       <use xlink:href="#BitstreamVeraSans-Roman-39"/>
       <use x="63.623046875" xlink:href="#BitstreamVeraSans-Roman-30"/>
       <use x="127.24609375" xlink:href="#BitstreamVeraSans-Roman-30"/>
      </g>
     </g>
    </g>
    <g id="text_11">
     <!-- Ranking of prolificness (most predictions on the left) -->
     <defs>
      <path id="BitstreamVeraSans-Roman-20"/>
      <path d="
M52 44.1875
Q55.375 50.25 60.0625 53.125
Q64.75 56 71.0938 56
Q79.6406 56 84.2812 50.0156
Q88.9219 44.0469 88.9219 33.0156
L88.9219 0
L79.8906 0
L79.8906 32.7188
Q79.8906 40.5781 77.0938 44.375
Q74.3125 48.1875 68.6094 48.1875
Q61.625 48.1875 57.5625 43.5469
Q53.5156 38.9219 53.5156 30.9062
L53.5156 0
L44.4844 0
L44.4844 32.7188
Q44.4844 40.625 41.7031 44.4062
Q38.9219 48.1875 33.1094 48.1875
Q26.2188 48.1875 22.1562 43.5312
Q18.1094 38.875 18.1094 30.9062
L18.1094 0
L9.07812 0
L9.07812 54.6875
L18.1094 54.6875
L18.1094 46.1875
Q21.1875 51.2188 25.4844 53.6094
Q29.7812 56 35.6875 56
Q41.6562 56 45.8281 52.9688
Q50 49.9531 52 44.1875" id="BitstreamVeraSans-Roman-6d"/>
      <path d="
M54.8906 33.0156
L54.8906 0
L45.9062 0
L45.9062 32.7188
Q45.9062 40.4844 42.875 44.3281
Q39.8438 48.1875 33.7969 48.1875
Q26.5156 48.1875 22.3125 43.5469
Q18.1094 38.9219 18.1094 30.9062
L18.1094 0
L9.07812 0
L9.07812 54.6875
L18.1094 54.6875
L18.1094 46.1875
Q21.3438 51.125 25.7031 53.5625
Q30.0781 56 35.7969 56
Q45.2188 56 50.0469 50.1719
Q54.8906 44.3438 54.8906 33.0156" id="BitstreamVeraSans-Roman-6e"/>
      <path d="
M41.1094 46.2969
Q39.5938 47.1719 37.8125 47.5781
Q36.0312 48 33.8906 48
Q26.2656 48 22.1875 43.0469
Q18.1094 38.0938 18.1094 28.8125
L18.1094 0
L9.07812 0
L9.07812 54.6875
L18.1094 54.6875
L18.1094 46.1875
Q20.9531 51.1719 25.4844 53.5781
Q30.0312 56 36.5312 56
Q37.4531 56 38.5781 55.875
Q39.7031 55.7656 41.0625 55.5156
z
" id="BitstreamVeraSans-Roman-72"/>
      <path d="
M30.6094 48.3906
Q23.3906 48.3906 19.1875 42.75
Q14.9844 37.1094 14.9844 27.2969
Q14.9844 17.4844 19.1562 11.8438
Q23.3438 6.20312 30.6094 6.20312
Q37.7969 6.20312 41.9844 11.8594
Q46.1875 17.5312 46.1875 27.2969
Q46.1875 37.0156 41.9844 42.7031
Q37.7969 48.3906 30.6094 48.3906
M30.6094 56
Q42.3281 56 49.0156 48.375
Q55.7188 40.7656 55.7188 27.2969
Q55.7188 13.875 49.0156 6.21875
Q42.3281 -1.42188 30.6094 -1.42188
Q18.8438 -1.42188 12.1719 6.21875
Q5.51562 13.875 5.51562 27.2969
Q5.51562 40.7656 12.1719 48.375
Q18.8438 56 30.6094 56" id="BitstreamVeraSans-Roman-6f"/>
      <path d="
M18.3125 70.2188
L18.3125 54.6875
L36.8125 54.6875
L36.8125 47.7031
L18.3125 47.7031
L18.3125 18.0156
Q18.3125 11.3281 20.1406 9.42188
Q21.9688 7.51562 27.5938 7.51562
L36.8125 7.51562
L36.8125 0
L27.5938 0
Q17.1875 0 13.2344 3.875
Q9.28125 7.76562 9.28125 18.0156
L9.28125 47.7031
L2.6875 47.7031
L2.6875 54.6875
L9.28125 54.6875
L9.28125 70.2188
z
" id="BitstreamVeraSans-Roman-74"/>
      <path d="
M9.42188 75.9844
L18.4062 75.9844
L18.4062 0
L9.42188 0
z
" id="BitstreamVeraSans-Roman-6c"/>
      <path d="
M9.07812 75.9844
L18.1094 75.9844
L18.1094 31.1094
L44.9219 54.6875
L56.3906 54.6875
L27.3906 29.1094
L57.625 0
L45.9062 0
L18.1094 26.7031
L18.1094 0
L9.07812 0
z
" id="BitstreamVeraSans-Roman-6b"/>
      <path d="
M8.01562 75.875
L15.8281 75.875
Q23.1406 64.3594 26.7812 53.3125
Q30.4219 42.2812 30.4219 31.3906
Q30.4219 20.4531 26.7812 9.375
Q23.1406 -1.70312 15.8281 -13.1875
L8.01562 -13.1875
Q14.5 -2 17.7031 9.0625
Q20.9062 20.125 20.9062 31.3906
Q20.9062 42.6719 17.7031 53.6562
Q14.5 64.6562 8.01562 75.875" id="BitstreamVeraSans-Roman-29"/>
      <path d="
M44.3906 34.1875
Q47.5625 33.1094 50.5625 29.5938
Q53.5625 26.0781 56.5938 19.9219
L66.6094 0
L56 0
L46.6875 18.7031
Q43.0625 26.0312 39.6719 28.4219
Q36.2812 30.8125 30.4219 30.8125
L19.6719 30.8125
L19.6719 0
L9.8125 0
L9.8125 72.9062
L32.0781 72.9062
Q44.5781 72.9062 50.7344 67.6719
Q56.8906 62.4531 56.8906 51.9062
Q56.8906 45.0156 53.6875 40.4688
Q50.4844 35.9375 44.3906 34.1875
M19.6719 64.7969
L19.6719 38.9219
L32.0781 38.9219
Q39.2031 38.9219 42.8438 42.2188
Q46.4844 45.5156 46.4844 51.9062
Q46.4844 58.2969 42.8438 61.5469
Q39.2031 64.7969 32.0781 64.7969
z
" id="BitstreamVeraSans-Roman-52"/>
      <path d="
M9.42188 54.6875
L18.4062 54.6875
L18.4062 0
L9.42188 0
z

M9.42188 75.9844
L18.4062 75.9844
L18.4062 64.5938
L9.42188 64.5938
z
" id="BitstreamVeraSans-Roman-69"/>
      <path d="
M48.7812 52.5938
L48.7812 44.1875
Q44.9688 46.2969 41.1406 47.3438
Q37.3125 48.3906 33.4062 48.3906
Q24.6562 48.3906 19.8125 42.8438
Q14.9844 37.3125 14.9844 27.2969
Q14.9844 17.2812 19.8125 11.7344
Q24.6562 6.20312 33.4062 6.20312
Q37.3125 6.20312 41.1406 7.25
Q44.9688 8.29688 48.7812 10.4062
L48.7812 2.09375
Q45.0156 0.34375 40.9844 -0.53125
Q36.9688 -1.42188 32.4219 -1.42188
Q20.0625 -1.42188 12.7812 6.34375
Q5.51562 14.1094 5.51562 27.2969
Q5.51562 40.6719 12.8594 48.3281
Q20.2188 56 33.0156 56
Q37.1562 56 41.1094 55.1406
Q45.0625 54.2969 48.7812 52.5938" id="BitstreamVeraSans-Roman-63"/>
      <path d="
M31 75.875
Q24.4688 64.6562 21.2812 53.6562
Q18.1094 42.6719 18.1094 31.3906
Q18.1094 20.125 21.3125 9.0625
Q24.5156 -2 31 -13.1875
L23.1875 -13.1875
Q15.875 -1.70312 12.2344 9.375
Q8.59375 20.4531 8.59375 31.3906
Q8.59375 42.2812 12.2031 53.3125
Q15.8281 64.3594 23.1875 75.875
z
" id="BitstreamVeraSans-Roman-28"/>
      <path d="
M56.2031 29.5938
L56.2031 25.2031
L14.8906 25.2031
Q15.4844 15.9219 20.4844 11.0625
Q25.4844 6.20312 34.4219 6.20312
Q39.5938 6.20312 44.4531 7.46875
Q49.3125 8.73438 54.1094 11.2812
L54.1094 2.78125
Q49.2656 0.734375 44.1875 -0.34375
Q39.1094 -1.42188 33.8906 -1.42188
Q20.7969 -1.42188 13.1562 6.1875
Q5.51562 13.8125 5.51562 26.8125
Q5.51562 40.2344 12.7656 48.1094
Q20.0156 56 32.3281 56
Q43.3594 56 49.7812 48.8906
Q56.2031 41.7969 56.2031 29.5938
M47.2188 32.2344
Q47.125 39.5938 43.0938 43.9844
Q39.0625 48.3906 32.4219 48.3906
Q24.9062 48.3906 20.3906 44.1406
Q15.875 39.8906 15.1875 32.1719
z
" id="BitstreamVeraSans-Roman-65"/>
      <path d="
M45.4062 46.3906
L45.4062 75.9844
L54.3906 75.9844
L54.3906 0
L45.4062 0
L45.4062 8.20312
Q42.5781 3.32812 38.25 0.953125
Q33.9375 -1.42188 27.875 -1.42188
Q17.9688 -1.42188 11.7344 6.48438
Q5.51562 14.4062 5.51562 27.2969
Q5.51562 40.1875 11.7344 48.0938
Q17.9688 56 27.875 56
Q33.9375 56 38.25 53.625
Q42.5781 51.2656 45.4062 46.3906
M14.7969 27.2969
Q14.7969 17.3906 18.875 11.75
Q22.9531 6.10938 30.0781 6.10938
Q37.2031 6.10938 41.2969 11.75
Q45.4062 17.3906 45.4062 27.2969
Q45.4062 37.2031 41.2969 42.8438
Q37.2031 48.4844 30.0781 48.4844
Q22.9531 48.4844 18.875 42.8438
Q14.7969 37.2031 14.7969 27.2969" id="BitstreamVeraSans-Roman-64"/>
      <path d="
M45.4062 27.9844
Q45.4062 37.75 41.375 43.1094
Q37.3594 48.4844 30.0781 48.4844
Q22.8594 48.4844 18.8281 43.1094
Q14.7969 37.75 14.7969 27.9844
Q14.7969 18.2656 18.8281 12.8906
Q22.8594 7.51562 30.0781 7.51562
Q37.3594 7.51562 41.375 12.8906
Q45.4062 18.2656 45.4062 27.9844
M54.3906 6.78125
Q54.3906 -7.17188 48.1875 -13.9844
Q42 -20.7969 29.2031 -20.7969
Q24.4688 -20.7969 20.2656 -20.0938
Q16.0625 -19.3906 12.1094 -17.9219
L12.1094 -9.1875
Q16.0625 -11.3281 19.9219 -12.3438
Q23.7812 -13.375 27.7812 -13.375
Q36.625 -13.375 41.0156 -8.76562
Q45.4062 -4.15625 45.4062 5.17188
L45.4062 9.625
Q42.625 4.78125 38.2812 2.39062
Q33.9375 0 27.875 0
Q17.8281 0 11.6719 7.65625
Q5.51562 15.3281 5.51562 27.9844
Q5.51562 40.6719 11.6719 48.3281
Q17.8281 56 27.875 56
Q33.9375 56 38.2812 53.6094
Q42.625 51.2188 45.4062 46.3906
L45.4062 54.6875
L54.3906 54.6875
z
" id="BitstreamVeraSans-Roman-67"/>
      <path d="
M37.1094 75.9844
L37.1094 68.5
L28.5156 68.5
Q23.6875 68.5 21.7969 66.5469
Q19.9219 64.5938 19.9219 59.5156
L19.9219 54.6875
L34.7188 54.6875
L34.7188 47.7031
L19.9219 47.7031
L19.9219 0
L10.8906 0
L10.8906 47.7031
L2.29688 47.7031
L2.29688 54.6875
L10.8906 54.6875
L10.8906 58.5
Q10.8906 67.625 15.1406 71.7969
Q19.3906 75.9844 28.6094 75.9844
z
" id="BitstreamVeraSans-Roman-66"/>
      <path d="
M34.2812 27.4844
Q23.3906 27.4844 19.1875 25
Q14.9844 22.5156 14.9844 16.5
Q14.9844 11.7188 18.1406 8.90625
Q21.2969 6.10938 26.7031 6.10938
Q34.1875 6.10938 38.7031 11.4062
Q43.2188 16.7031 43.2188 25.4844
L43.2188 27.4844
z

M52.2031 31.2031
L52.2031 0
L43.2188 0
L43.2188 8.29688
Q40.1406 3.32812 35.5469 0.953125
Q30.9531 -1.42188 24.3125 -1.42188
Q15.9219 -1.42188 10.9531 3.29688
Q6 8.01562 6 15.9219
Q6 25.1406 12.1719 29.8281
Q18.3594 34.5156 30.6094 34.5156
L43.2188 34.5156
L43.2188 35.4062
Q43.2188 41.6094 39.1406 45
Q35.0625 48.3906 27.6875 48.3906
Q23 48.3906 18.5469 47.2656
Q14.1094 46.1406 10.0156 43.8906
L10.0156 52.2031
Q14.9375 54.1094 19.5781 55.0469
Q24.2188 56 28.6094 56
Q40.4844 56 46.3438 49.8438
Q52.2031 43.7031 52.2031 31.2031" id="BitstreamVeraSans-Roman-61"/>
      <path d="
M44.2812 53.0781
L44.2812 44.5781
Q40.4844 46.5312 36.375 47.5
Q32.2812 48.4844 27.875 48.4844
Q21.1875 48.4844 17.8438 46.4375
Q14.5 44.3906 14.5 40.2812
Q14.5 37.1562 16.8906 35.375
Q19.2812 33.5938 26.5156 31.9844
L29.5938 31.2969
Q39.1562 29.25 43.1875 25.5156
Q47.2188 21.7812 47.2188 15.0938
Q47.2188 7.46875 41.1875 3.01562
Q35.1562 -1.42188 24.6094 -1.42188
Q20.2188 -1.42188 15.4531 -0.5625
Q10.6875 0.296875 5.42188 2
L5.42188 11.2812
Q10.4062 8.6875 15.2344 7.39062
Q20.0625 6.10938 24.8125 6.10938
Q31.1562 6.10938 34.5625 8.28125
Q37.9844 10.4531 37.9844 14.4062
Q37.9844 18.0625 35.5156 20.0156
Q33.0625 21.9688 24.7031 23.7812
L21.5781 24.5156
Q13.2344 26.2656 9.51562 29.9062
Q5.8125 33.5469 5.8125 39.8906
Q5.8125 47.6094 11.2812 51.7969
Q16.75 56 26.8125 56
Q31.7812 56 36.1719 55.2656
Q40.5781 54.5469 44.2812 53.0781" id="BitstreamVeraSans-Roman-73"/>
      <path d="
M18.1094 8.20312
L18.1094 -20.7969
L9.07812 -20.7969
L9.07812 54.6875
L18.1094 54.6875
L18.1094 46.3906
Q20.9531 51.2656 25.2656 53.625
Q29.5938 56 35.5938 56
Q45.5625 56 51.7812 48.0938
Q58.0156 40.1875 58.0156 27.2969
Q58.0156 14.4062 51.7812 6.48438
Q45.5625 -1.42188 35.5938 -1.42188
Q29.5938 -1.42188 25.2656 0.953125
Q20.9531 3.32812 18.1094 8.20312
M48.6875 27.2969
Q48.6875 37.2031 44.6094 42.8438
Q40.5312 48.4844 33.4062 48.4844
Q26.2656 48.4844 22.1875 42.8438
Q18.1094 37.2031 18.1094 27.2969
Q18.1094 17.3906 22.1875 11.75
Q26.2656 6.10938 33.4062 6.10938
Q40.5312 6.10938 44.6094 11.75
Q48.6875 17.3906 48.6875 27.2969" id="BitstreamVeraSans-Roman-70"/>
      <path d="
M54.8906 33.0156
L54.8906 0
L45.9062 0
L45.9062 32.7188
Q45.9062 40.4844 42.875 44.3281
Q39.8438 48.1875 33.7969 48.1875
Q26.5156 48.1875 22.3125 43.5469
Q18.1094 38.9219 18.1094 30.9062
L18.1094 0
L9.07812 0
L9.07812 75.9844
L18.1094 75.9844
L18.1094 46.1875
Q21.3438 51.125 25.7031 53.5625
Q30.0781 56 35.7969 56
Q45.2188 56 50.0469 50.1719
Q54.8906 44.3438 54.8906 33.0156" id="BitstreamVeraSans-Roman-68"/>
     </defs>
     <g transform="translate(337.771875 603.480625)scale(0.1 -0.1)">
      <use xlink:href="#BitstreamVeraSans-Roman-52"/>
      <use x="67.232421875" xlink:href="#BitstreamVeraSans-Roman-61"/>
      <use x="128.51171875" xlink:href="#BitstreamVeraSans-Roman-6e"/>
      <use x="191.890625" xlink:href="#BitstreamVeraSans-Roman-6b"/>
      <use x="249.80078125" xlink:href="#BitstreamVeraSans-Roman-69"/>
      <use x="277.583984375" xlink:href="#BitstreamVeraSans-Roman-6e"/>
      <use x="340.962890625" xlink:href="#BitstreamVeraSans-Roman-67"/>
      <use x="404.439453125" xlink:href="#BitstreamVeraSans-Roman-20"/>
      <use x="436.2265625" xlink:href="#BitstreamVeraSans-Roman-6f"/>
      <use x="497.408203125" xlink:href="#BitstreamVeraSans-Roman-66"/>
      <use x="532.61328125" xlink:href="#BitstreamVeraSans-Roman-20"/>
      <use x="564.400390625" xlink:href="#BitstreamVeraSans-Roman-70"/>
      <use x="627.876953125" xlink:href="#BitstreamVeraSans-Roman-72"/>
      <use x="666.740234375" xlink:href="#BitstreamVeraSans-Roman-6f"/>
      <use x="727.921875" xlink:href="#BitstreamVeraSans-Roman-6c"/>
      <use x="755.705078125" xlink:href="#BitstreamVeraSans-Roman-69"/>
      <use x="783.48828125" xlink:href="#BitstreamVeraSans-Roman-66"/>
      <use x="818.693359375" xlink:href="#BitstreamVeraSans-Roman-69"/>
      <use x="846.4765625" xlink:href="#BitstreamVeraSans-Roman-63"/>
      <use x="901.45703125" xlink:href="#BitstreamVeraSans-Roman-6e"/>
      <use x="964.8359375" xlink:href="#BitstreamVeraSans-Roman-65"/>
      <use x="1026.359375" xlink:href="#BitstreamVeraSans-Roman-73"/>
      <use x="1078.45898438" xlink:href="#BitstreamVeraSans-Roman-73"/>
      <use x="1130.55859375" xlink:href="#BitstreamVeraSans-Roman-20"/>
      <use x="1162.34570312" xlink:href="#BitstreamVeraSans-Roman-28"/>
      <use x="1201.359375" xlink:href="#BitstreamVeraSans-Roman-6d"/>
      <use x="1298.77148438" xlink:href="#BitstreamVeraSans-Roman-6f"/>
      <use x="1359.953125" xlink:href="#BitstreamVeraSans-Roman-73"/>
      <use x="1412.05273438" xlink:href="#BitstreamVeraSans-Roman-74"/>
      <use x="1451.26171875" xlink:href="#BitstreamVeraSans-Roman-20"/>
      <use x="1483.04882812" xlink:href="#BitstreamVeraSans-Roman-70"/>
      <use x="1546.52539062" xlink:href="#BitstreamVeraSans-Roman-72"/>
      <use x="1585.38867188" xlink:href="#BitstreamVeraSans-Roman-65"/>
      <use x="1646.91210938" xlink:href="#BitstreamVeraSans-Roman-64"/>
      <use x="1710.38867188" xlink:href="#BitstreamVeraSans-Roman-69"/>
      <use x="1738.171875" xlink:href="#BitstreamVeraSans-Roman-63"/>
      <use x="1793.15234375" xlink:href="#BitstreamVeraSans-Roman-74"/>
      <use x="1832.36132812" xlink:href="#BitstreamVeraSans-Roman-69"/>
      <use x="1860.14453125" xlink:href="#BitstreamVeraSans-Roman-6f"/>
      <use x="1921.32617188" xlink:href="#BitstreamVeraSans-Roman-6e"/>
      <use x="1984.70507812" xlink:href="#BitstreamVeraSans-Roman-73"/>
      <use x="2036.8046875" xlink:href="#BitstreamVeraSans-Roman-20"/>
      <use x="2068.59179688" xlink:href="#BitstreamVeraSans-Roman-6f"/>
      <use x="2129.7734375" xlink:href="#BitstreamVeraSans-Roman-6e"/>
      <use x="2193.15234375" xlink:href="#BitstreamVeraSans-Roman-20"/>
      <use x="2224.93945312" xlink:href="#BitstreamVeraSans-Roman-74"/>
      <use x="2264.1484375" xlink:href="#BitstreamVeraSans-Roman-68"/>
      <use x="2327.52734375" xlink:href="#BitstreamVeraSans-Roman-65"/>
      <use x="2389.05078125" xlink:href="#BitstreamVeraSans-Roman-20"/>
      <use x="2420.83789062" xlink:href="#BitstreamVeraSans-Roman-6c"/>
      <use x="2448.62109375" xlink:href="#BitstreamVeraSans-Roman-65"/>
      <use x="2510.14453125" xlink:href="#BitstreamVeraSans-Roman-66"/>
      <use x="2543.59960938" xlink:href="#BitstreamVeraSans-Roman-74"/>
      <use x="2582.80859375" xlink:href="#BitstreamVeraSans-Roman-29"/>
     </g>
    </g>
   </g>
   <g id="matplotlib.axis_2">
    <g id="ytick_1">
     <g id="line2d_22">
      <defs>
       <path d="
M0 0
L4 0" id="mc8fcea1516" style="stroke:#000000;stroke-linecap:butt;stroke-width:0.5;"/>
      </defs>
      <g>
       <use style="stroke:#000000;stroke-linecap:butt;stroke-width:0.5;" x="49.93125" xlink:href="#mc8fcea1516" y="579.318125"/>
      </g>
     </g>
     <g id="line2d_23">
      <defs>
       <path d="
M0 0
L-4 0" id="m0d5b0a6425" style="stroke:#000000;stroke-linecap:butt;stroke-width:0.5;"/>
      </defs>
      <g>
       <use style="stroke:#000000;stroke-linecap:butt;stroke-width:0.5;" x="886.93125" xlink:href="#m0d5b0a6425" y="579.318125"/>
      </g>
     </g>
     <g id="text_12">
      <!-- 0 -->
      <g transform="translate(40.8921875 582.95796875)scale(0.1 -0.1)">
       <use xlink:href="#BitstreamVeraSans-Roman-30"/>
      </g>
     </g>
    </g>
    <g id="ytick_2">
     <g id="line2d_24">
      <g>
       <use style="stroke:#000000;stroke-linecap:butt;stroke-width:0.5;" x="49.93125" xlink:href="#mc8fcea1516" y="523.518125"/>
      </g>
     </g>
     <g id="line2d_25">
      <g>
       <use style="stroke:#000000;stroke-linecap:butt;stroke-width:0.5;" x="886.93125" xlink:href="#m0d5b0a6425" y="523.518125"/>
      </g>
     </g>
     <g id="text_13">
      <!-- 200 -->
      <g transform="translate(28.240625 527.15796875)scale(0.1 -0.1)">
       <use xlink:href="#BitstreamVeraSans-Roman-32"/>
       <use x="63.623046875" xlink:href="#BitstreamVeraSans-Roman-30"/>
       <use x="127.24609375" xlink:href="#BitstreamVeraSans-Roman-30"/>
      </g>
     </g>
    </g>
    <g id="ytick_3">
     <g id="line2d_26">
      <g>
       <use style="stroke:#000000;stroke-linecap:butt;stroke-width:0.5;" x="49.93125" xlink:href="#mc8fcea1516" y="467.718125"/>
      </g>
     </g>
     <g id="line2d_27">
      <g>
       <use style="stroke:#000000;stroke-linecap:butt;stroke-width:0.5;" x="886.93125" xlink:href="#m0d5b0a6425" y="467.718125"/>
      </g>
     </g>
     <g id="text_14">
      <!-- 400 -->
      <g transform="translate(27.996875 471.35796875)scale(0.1 -0.1)">
       <use xlink:href="#BitstreamVeraSans-Roman-34"/>
       <use x="63.623046875" xlink:href="#BitstreamVeraSans-Roman-30"/>
       <use x="127.24609375" xlink:href="#BitstreamVeraSans-Roman-30"/>
      </g>
     </g>
    </g>
    <g id="ytick_4">
     <g id="line2d_28">
      <g>
       <use style="stroke:#000000;stroke-linecap:butt;stroke-width:0.5;" x="49.93125" xlink:href="#mc8fcea1516" y="411.918125"/>
      </g>
     </g>
     <g id="line2d_29">
      <g>
       <use style="stroke:#000000;stroke-linecap:butt;stroke-width:0.5;" x="886.93125" xlink:href="#m0d5b0a6425" y="411.918125"/>
      </g>
     </g>
     <g id="text_15">
      <!-- 600 -->
      <g transform="translate(28.20625 415.55796875)scale(0.1 -0.1)">
       <use xlink:href="#BitstreamVeraSans-Roman-36"/>
       <use x="63.623046875" xlink:href="#BitstreamVeraSans-Roman-30"/>
       <use x="127.24609375" xlink:href="#BitstreamVeraSans-Roman-30"/>
      </g>
     </g>
    </g>
    <g id="ytick_5">
     <g id="line2d_30">
      <g>
       <use style="stroke:#000000;stroke-linecap:butt;stroke-width:0.5;" x="49.93125" xlink:href="#mc8fcea1516" y="356.118125"/>
      </g>
     </g>
     <g id="line2d_31">
      <g>
       <use style="stroke:#000000;stroke-linecap:butt;stroke-width:0.5;" x="886.93125" xlink:href="#m0d5b0a6425" y="356.118125"/>
      </g>
     </g>
     <g id="text_16">
      <!-- 800 -->
      <g transform="translate(28.1859375 359.75796875)scale(0.1 -0.1)">
       <use xlink:href="#BitstreamVeraSans-Roman-38"/>
       <use x="63.623046875" xlink:href="#BitstreamVeraSans-Roman-30"/>
       <use x="127.24609375" xlink:href="#BitstreamVeraSans-Roman-30"/>
      </g>
     </g>
    </g>
    <g id="ytick_6">
     <g id="line2d_32">
      <g>
       <use style="stroke:#000000;stroke-linecap:butt;stroke-width:0.5;" x="49.93125" xlink:href="#mc8fcea1516" y="300.318125"/>
      </g>
     </g>
     <g id="line2d_33">
      <g>
       <use style="stroke:#000000;stroke-linecap:butt;stroke-width:0.5;" x="886.93125" xlink:href="#m0d5b0a6425" y="300.318125"/>
      </g>
     </g>
     <g id="text_17">
      <!-- 1000 -->
      <g transform="translate(22.24375 303.95796875)scale(0.1 -0.1)">
       <use xlink:href="#BitstreamVeraSans-Roman-31"/>
       <use x="63.623046875" xlink:href="#BitstreamVeraSans-Roman-30"/>
       <use x="127.24609375" xlink:href="#BitstreamVeraSans-Roman-30"/>
       <use x="190.869140625" xlink:href="#BitstreamVeraSans-Roman-30"/>
      </g>
     </g>
    </g>
    <g id="ytick_7">
     <g id="line2d_34">
      <g>
       <use style="stroke:#000000;stroke-linecap:butt;stroke-width:0.5;" x="49.93125" xlink:href="#mc8fcea1516" y="244.518125"/>
      </g>
     </g>
     <g id="line2d_35">
      <g>
       <use style="stroke:#000000;stroke-linecap:butt;stroke-width:0.5;" x="886.93125" xlink:href="#m0d5b0a6425" y="244.518125"/>
      </g>
     </g>
     <g id="text_18">
      <!-- 1200 -->
      <g transform="translate(22.24375 248.15796875)scale(0.1 -0.1)">
       <use xlink:href="#BitstreamVeraSans-Roman-31"/>
       <use x="63.623046875" xlink:href="#BitstreamVeraSans-Roman-32"/>
       <use x="127.24609375" xlink:href="#BitstreamVeraSans-Roman-30"/>
       <use x="190.869140625" xlink:href="#BitstreamVeraSans-Roman-30"/>
      </g>
     </g>
    </g>
    <g id="ytick_8">
     <g id="line2d_36">
      <g>
       <use style="stroke:#000000;stroke-linecap:butt;stroke-width:0.5;" x="49.93125" xlink:href="#mc8fcea1516" y="188.718125"/>
      </g>
     </g>
     <g id="line2d_37">
      <g>
       <use style="stroke:#000000;stroke-linecap:butt;stroke-width:0.5;" x="886.93125" xlink:href="#m0d5b0a6425" y="188.718125"/>
      </g>
     </g>
     <g id="text_19">
      <!-- 1400 -->
      <g transform="translate(22.24375 192.35796875)scale(0.1 -0.1)">
       <use xlink:href="#BitstreamVeraSans-Roman-31"/>
       <use x="63.623046875" xlink:href="#BitstreamVeraSans-Roman-34"/>
       <use x="127.24609375" xlink:href="#BitstreamVeraSans-Roman-30"/>
       <use x="190.869140625" xlink:href="#BitstreamVeraSans-Roman-30"/>
      </g>
     </g>
    </g>
    <g id="ytick_9">
     <g id="line2d_38">
      <g>
       <use style="stroke:#000000;stroke-linecap:butt;stroke-width:0.5;" x="49.93125" xlink:href="#mc8fcea1516" y="132.918125"/>
      </g>
     </g>
     <g id="line2d_39">
      <g>
       <use style="stroke:#000000;stroke-linecap:butt;stroke-width:0.5;" x="886.93125" xlink:href="#m0d5b0a6425" y="132.918125"/>
      </g>
     </g>
     <g id="text_20">
      <!-- 1600 -->
      <g transform="translate(22.24375 136.55796875)scale(0.1 -0.1)">
       <use xlink:href="#BitstreamVeraSans-Roman-31"/>
       <use x="63.623046875" xlink:href="#BitstreamVeraSans-Roman-36"/>
       <use x="127.24609375" xlink:href="#BitstreamVeraSans-Roman-30"/>
       <use x="190.869140625" xlink:href="#BitstreamVeraSans-Roman-30"/>
      </g>
     </g>
    </g>
    <g id="ytick_10">
     <g id="line2d_40">
      <g>
       <use style="stroke:#000000;stroke-linecap:butt;stroke-width:0.5;" x="49.93125" xlink:href="#mc8fcea1516" y="77.118125"/>
      </g>
     </g>
     <g id="line2d_41">
      <g>
       <use style="stroke:#000000;stroke-linecap:butt;stroke-width:0.5;" x="886.93125" xlink:href="#m0d5b0a6425" y="77.118125"/>
      </g>
     </g>
     <g id="text_21">
      <!-- 1800 -->
      <g transform="translate(22.24375 80.75796875)scale(0.1 -0.1)">
       <use xlink:href="#BitstreamVeraSans-Roman-31"/>
       <use x="63.623046875" xlink:href="#BitstreamVeraSans-Roman-38"/>
       <use x="127.24609375" xlink:href="#BitstreamVeraSans-Roman-30"/>
       <use x="190.869140625" xlink:href="#BitstreamVeraSans-Roman-30"/>
      </g>
     </g>
    </g>
    <g id="ytick_11">
     <g id="line2d_42">
      <g>
       <use style="stroke:#000000;stroke-linecap:butt;stroke-width:0.5;" x="49.93125" xlink:href="#mc8fcea1516" y="21.318125"/>
      </g>
     </g>
     <g id="line2d_43">
      <g>
       <use style="stroke:#000000;stroke-linecap:butt;stroke-width:0.5;" x="886.93125" xlink:href="#m0d5b0a6425" y="21.318125"/>
      </g>
     </g>
     <g id="text_22">
      <!-- 2000 -->
      <g transform="translate(21.878125 24.95796875)scale(0.1 -0.1)">
       <use xlink:href="#BitstreamVeraSans-Roman-32"/>
       <use x="63.623046875" xlink:href="#BitstreamVeraSans-Roman-30"/>
       <use x="127.24609375" xlink:href="#BitstreamVeraSans-Roman-30"/>
       <use x="190.869140625" xlink:href="#BitstreamVeraSans-Roman-30"/>
      </g>
     </g>
    </g>
    <g id="text_23">
     <!-- Number of judged predictions made -->
     <defs>
      <path d="
M9.8125 72.9062
L23.0938 72.9062
L55.4219 11.9219
L55.4219 72.9062
L64.9844 72.9062
L64.9844 0
L51.7031 0
L19.3906 60.9844
L19.3906 0
L9.8125 0
z
" id="BitstreamVeraSans-Roman-4e"/>
      <path d="
M8.5 21.5781
L8.5 54.6875
L17.4844 54.6875
L17.4844 21.9219
Q17.4844 14.1562 20.5 10.2656
Q23.5312 6.39062 29.5938 6.39062
Q36.8594 6.39062 41.0781 11.0312
Q45.3125 15.6719 45.3125 23.6875
L45.3125 54.6875
L54.2969 54.6875
L54.2969 0
L45.3125 0
L45.3125 8.40625
Q42.0469 3.42188 37.7188 1
Q33.4062 -1.42188 27.6875 -1.42188
Q18.2656 -1.42188 13.375 4.4375
Q8.5 10.2969 8.5 21.5781" id="BitstreamVeraSans-Roman-75"/>
      <path d="
M9.42188 54.6875
L18.4062 54.6875
L18.4062 -0.984375
Q18.4062 -11.4219 14.4219 -16.1094
Q10.4531 -20.7969 1.60938 -20.7969
L-1.8125 -20.7969
L-1.8125 -13.1875
L0.59375 -13.1875
Q5.71875 -13.1875 7.5625 -10.8125
Q9.42188 -8.45312 9.42188 -0.984375
z

M9.42188 75.9844
L18.4062 75.9844
L18.4062 64.5938
L9.42188 64.5938
z
" id="BitstreamVeraSans-Roman-6a"/>
      <path d="
M48.6875 27.2969
Q48.6875 37.2031 44.6094 42.8438
Q40.5312 48.4844 33.4062 48.4844
Q26.2656 48.4844 22.1875 42.8438
Q18.1094 37.2031 18.1094 27.2969
Q18.1094 17.3906 22.1875 11.75
Q26.2656 6.10938 33.4062 6.10938
Q40.5312 6.10938 44.6094 11.75
Q48.6875 17.3906 48.6875 27.2969
M18.1094 46.3906
Q20.9531 51.2656 25.2656 53.625
Q29.5938 56 35.5938 56
Q45.5625 56 51.7812 48.0938
Q58.0156 40.1875 58.0156 27.2969
Q58.0156 14.4062 51.7812 6.48438
Q45.5625 -1.42188 35.5938 -1.42188
Q29.5938 -1.42188 25.2656 0.953125
Q20.9531 3.32812 18.1094 8.20312
L18.1094 0
L9.07812 0
L9.07812 75.9844
L18.1094 75.9844
z
" id="BitstreamVeraSans-Roman-62"/>
     </defs>
     <g transform="translate(16.878125 388.26421875)rotate(-90.0)scale(0.1 -0.1)">
      <use xlink:href="#BitstreamVeraSans-Roman-4e"/>
      <use x="74.8046875" xlink:href="#BitstreamVeraSans-Roman-75"/>
      <use x="138.18359375" xlink:href="#BitstreamVeraSans-Roman-6d"/>
      <use x="235.595703125" xlink:href="#BitstreamVeraSans-Roman-62"/>
      <use x="299.072265625" xlink:href="#BitstreamVeraSans-Roman-65"/>
      <use x="360.595703125" xlink:href="#BitstreamVeraSans-Roman-72"/>
      <use x="401.708984375" xlink:href="#BitstreamVeraSans-Roman-20"/>
      <use x="433.49609375" xlink:href="#BitstreamVeraSans-Roman-6f"/>
      <use x="494.677734375" xlink:href="#BitstreamVeraSans-Roman-66"/>
      <use x="529.8828125" xlink:href="#BitstreamVeraSans-Roman-20"/>
      <use x="561.669921875" xlink:href="#BitstreamVeraSans-Roman-6a"/>
      <use x="589.453125" xlink:href="#BitstreamVeraSans-Roman-75"/>
      <use x="652.83203125" xlink:href="#BitstreamVeraSans-Roman-64"/>
      <use x="716.30859375" xlink:href="#BitstreamVeraSans-Roman-67"/>
      <use x="779.78515625" xlink:href="#BitstreamVeraSans-Roman-65"/>
      <use x="841.30859375" xlink:href="#BitstreamVeraSans-Roman-64"/>
      <use x="904.78515625" xlink:href="#BitstreamVeraSans-Roman-20"/>
      <use x="936.572265625" xlink:href="#BitstreamVeraSans-Roman-70"/>
      <use x="1000.04882812" xlink:href="#BitstreamVeraSans-Roman-72"/>
      <use x="1038.91210938" xlink:href="#BitstreamVeraSans-Roman-65"/>
      <use x="1100.43554688" xlink:href="#BitstreamVeraSans-Roman-64"/>
      <use x="1163.91210938" xlink:href="#BitstreamVeraSans-Roman-69"/>
      <use x="1191.6953125" xlink:href="#BitstreamVeraSans-Roman-63"/>
      <use x="1246.67578125" xlink:href="#BitstreamVeraSans-Roman-74"/>
      <use x="1285.88476562" xlink:href="#BitstreamVeraSans-Roman-69"/>
      <use x="1313.66796875" xlink:href="#BitstreamVeraSans-Roman-6f"/>
      <use x="1374.84960938" xlink:href="#BitstreamVeraSans-Roman-6e"/>
      <use x="1438.22851562" xlink:href="#BitstreamVeraSans-Roman-73"/>
      <use x="1490.328125" xlink:href="#BitstreamVeraSans-Roman-20"/>
      <use x="1522.11523438" xlink:href="#BitstreamVeraSans-Roman-6d"/>
      <use x="1619.52734375" xlink:href="#BitstreamVeraSans-Roman-61"/>
      <use x="1680.80664062" xlink:href="#BitstreamVeraSans-Roman-64"/>
      <use x="1744.28320312" xlink:href="#BitstreamVeraSans-Roman-65"/>
     </g>
    </g>
   </g>
   <g id="patch_3">
    <path d="
M49.9313 21.3181
L886.931 21.3181" style="fill:none;stroke:#000000;"/>
   </g>
   <g id="patch_4">
    <path d="
M886.931 579.318
L886.931 21.3181" style="fill:none;stroke:#000000;"/>
   </g>
   <g id="patch_5">
    <path d="
M49.9313 579.318
L886.931 579.318" style="fill:none;stroke:#000000;"/>
   </g>
   <g id="patch_6">
    <path d="
M49.9313 579.318
L49.9313 21.3181" style="fill:none;stroke:#000000;"/>
   </g>
   <g id="patch_7">
    <path d="
M88.1226 60.3165
Q70.013 63.124 53.0081 65.7601" style="fill:none;stroke:#000000;stroke-linecap:round;"/>
    <path d="
M57.2673 67.1237
L53.0081 65.7601
L56.6545 63.171" style="fill:none;stroke:#000000;stroke-linecap:round;"/>
   </g>
   <g id="text_24">
    <!-- top predictor: 1839 (id:  500) -->
    <defs>
     <path d="
M11.7188 12.4062
L22.0156 12.4062
L22.0156 0
L11.7188 0
z

M11.7188 51.7031
L22.0156 51.7031
L22.0156 39.3125
L11.7188 39.3125
z
" id="BitstreamVeraSans-Roman-3a"/>
    </defs>
    <g transform="translate(59.93125 56.237125)scale(0.1 -0.1)">
     <use xlink:href="#BitstreamVeraSans-Roman-74"/>
     <use x="39.208984375" xlink:href="#BitstreamVeraSans-Roman-6f"/>
     <use x="100.390625" xlink:href="#BitstreamVeraSans-Roman-70"/>
     <use x="163.8671875" xlink:href="#BitstreamVeraSans-Roman-20"/>
     <use x="195.654296875" xlink:href="#BitstreamVeraSans-Roman-70"/>
     <use x="259.130859375" xlink:href="#BitstreamVeraSans-Roman-72"/>
     <use x="297.994140625" xlink:href="#BitstreamVeraSans-Roman-65"/>
     <use x="359.517578125" xlink:href="#BitstreamVeraSans-Roman-64"/>
     <use x="422.994140625" xlink:href="#BitstreamVeraSans-Roman-69"/>
     <use x="450.77734375" xlink:href="#BitstreamVeraSans-Roman-63"/>
     <use x="505.7578125" xlink:href="#BitstreamVeraSans-Roman-74"/>
     <use x="544.966796875" xlink:href="#BitstreamVeraSans-Roman-6f"/>
     <use x="606.1484375" xlink:href="#BitstreamVeraSans-Roman-72"/>
     <use x="645.51171875" xlink:href="#BitstreamVeraSans-Roman-3a"/>
     <use x="679.203125" xlink:href="#BitstreamVeraSans-Roman-20"/>
     <use x="710.990234375" xlink:href="#BitstreamVeraSans-Roman-31"/>
     <use x="774.61328125" xlink:href="#BitstreamVeraSans-Roman-38"/>
     <use x="838.236328125" xlink:href="#BitstreamVeraSans-Roman-33"/>
     <use x="901.859375" xlink:href="#BitstreamVeraSans-Roman-39"/>
     <use x="965.482421875" xlink:href="#BitstreamVeraSans-Roman-20"/>
     <use x="997.26953125" xlink:href="#BitstreamVeraSans-Roman-28"/>
     <use x="1036.28320312" xlink:href="#BitstreamVeraSans-Roman-69"/>
     <use x="1064.06640625" xlink:href="#BitstreamVeraSans-Roman-64"/>
     <use x="1127.54296875" xlink:href="#BitstreamVeraSans-Roman-3a"/>
     <use x="1161.234375" xlink:href="#BitstreamVeraSans-Roman-20"/>
     <use x="1193.02148438" xlink:href="#BitstreamVeraSans-Roman-20"/>
     <use x="1224.80859375" xlink:href="#BitstreamVeraSans-Roman-35"/>
     <use x="1288.43164062" xlink:href="#BitstreamVeraSans-Roman-30"/>
     <use x="1352.0546875" xlink:href="#BitstreamVeraSans-Roman-30"/>
     <use x="1415.67773438" xlink:href="#BitstreamVeraSans-Roman-29"/>
    </g>
   </g>
   <g id="patch_8">
    <path d="
M92.3764 242.859
Q72.559 246.041 53.8454 249.046" style="fill:none;stroke:#000000;stroke-linecap:round;"/>
    <path d="
M58.1119 250.387
L53.8454 249.046
L57.4777 246.437" style="fill:none;stroke:#000000;stroke-linecap:round;"/>
   </g>
   <g id="text_25">
    <!-- number two: 1182 (id: 2684) -->
    <defs>
     <path d="
M4.20312 54.6875
L13.1875 54.6875
L24.4219 12.0156
L35.5938 54.6875
L46.1875 54.6875
L57.4219 12.0156
L68.6094 54.6875
L77.5938 54.6875
L63.2812 0
L52.6875 0
L40.9219 44.8281
L29.1094 0
L18.5 0
z
" id="BitstreamVeraSans-Roman-77"/>
    </defs>
    <g transform="translate(60.76825 239.540125)scale(0.1 -0.1)">
     <use xlink:href="#BitstreamVeraSans-Roman-6e"/>
     <use x="63.37890625" xlink:href="#BitstreamVeraSans-Roman-75"/>
     <use x="126.7578125" xlink:href="#BitstreamVeraSans-Roman-6d"/>
     <use x="224.169921875" xlink:href="#BitstreamVeraSans-Roman-62"/>
     <use x="287.646484375" xlink:href="#BitstreamVeraSans-Roman-65"/>
     <use x="349.169921875" xlink:href="#BitstreamVeraSans-Roman-72"/>
     <use x="390.283203125" xlink:href="#BitstreamVeraSans-Roman-20"/>
     <use x="422.0703125" xlink:href="#BitstreamVeraSans-Roman-74"/>
     <use x="461.279296875" xlink:href="#BitstreamVeraSans-Roman-77"/>
     <use x="543.06640625" xlink:href="#BitstreamVeraSans-Roman-6f"/>
     <use x="604.248046875" xlink:href="#BitstreamVeraSans-Roman-3a"/>
     <use x="637.939453125" xlink:href="#BitstreamVeraSans-Roman-20"/>
     <use x="669.7265625" xlink:href="#BitstreamVeraSans-Roman-31"/>
     <use x="733.349609375" xlink:href="#BitstreamVeraSans-Roman-31"/>
     <use x="796.97265625" xlink:href="#BitstreamVeraSans-Roman-38"/>
     <use x="860.595703125" xlink:href="#BitstreamVeraSans-Roman-32"/>
     <use x="924.21875" xlink:href="#BitstreamVeraSans-Roman-20"/>
     <use x="956.005859375" xlink:href="#BitstreamVeraSans-Roman-28"/>
     <use x="995.01953125" xlink:href="#BitstreamVeraSans-Roman-69"/>
     <use x="1022.80273438" xlink:href="#BitstreamVeraSans-Roman-64"/>
     <use x="1086.27929688" xlink:href="#BitstreamVeraSans-Roman-3a"/>
     <use x="1119.97070312" xlink:href="#BitstreamVeraSans-Roman-20"/>
     <use x="1151.7578125" xlink:href="#BitstreamVeraSans-Roman-32"/>
     <use x="1215.38085938" xlink:href="#BitstreamVeraSans-Roman-36"/>
     <use x="1279.00390625" xlink:href="#BitstreamVeraSans-Roman-38"/>
     <use x="1342.62695312" xlink:href="#BitstreamVeraSans-Roman-34"/>
     <use x="1406.25" xlink:href="#BitstreamVeraSans-Roman-29"/>
    </g>
   </g>
   <g id="patch_9">
    <path d="
M119.322 548.085
Q106.105 551.197 93.9758 554.052" style="fill:none;stroke:#000000;stroke-linecap:round;"/>
    <path d="
M98.3277 555.082
L93.9758 554.052
L97.411 551.189" style="fill:none;stroke:#000000;stroke-linecap:round;"/>
   </g>
   <g id="text_26">
    <!-- #50:  88 (id:  139) -->
    <defs>
     <path d="
M51.125 44
L36.9219 44
L32.8125 27.6875
L47.125 27.6875
z

M43.7969 71.7812
L38.7188 51.5156
L52.9844 51.5156
L58.1094 71.7812
L65.9219 71.7812
L60.8906 51.5156
L76.125 51.5156
L76.125 44
L58.9844 44
L54.9844 27.6875
L70.5156 27.6875
L70.5156 20.2188
L53.0781 20.2188
L48 0
L40.1875 0
L45.2188 20.2188
L30.9062 20.2188
L25.875 0
L18.0156 0
L23.0938 20.2188
L7.71875 20.2188
L7.71875 27.6875
L24.9062 27.6875
L29 44
L13.2812 44
L13.2812 51.5156
L30.9062 51.5156
L35.8906 71.7812
z
" id="BitstreamVeraSans-Roman-23"/>
    </defs>
    <g transform="translate(100.94425 544.766125)scale(0.1 -0.1)">
     <use xlink:href="#BitstreamVeraSans-Roman-23"/>
     <use x="83.7890625" xlink:href="#BitstreamVeraSans-Roman-35"/>
     <use x="147.412109375" xlink:href="#BitstreamVeraSans-Roman-30"/>
     <use x="211.03515625" xlink:href="#BitstreamVeraSans-Roman-3a"/>
     <use x="244.7265625" xlink:href="#BitstreamVeraSans-Roman-20"/>
     <use x="276.513671875" xlink:href="#BitstreamVeraSans-Roman-20"/>
     <use x="308.30078125" xlink:href="#BitstreamVeraSans-Roman-38"/>
     <use x="371.923828125" xlink:href="#BitstreamVeraSans-Roman-38"/>
     <use x="435.546875" xlink:href="#BitstreamVeraSans-Roman-20"/>
     <use x="467.333984375" xlink:href="#BitstreamVeraSans-Roman-28"/>
     <use x="506.34765625" xlink:href="#BitstreamVeraSans-Roman-69"/>
     <use x="534.130859375" xlink:href="#BitstreamVeraSans-Roman-64"/>
     <use x="597.607421875" xlink:href="#BitstreamVeraSans-Roman-3a"/>
     <use x="631.298828125" xlink:href="#BitstreamVeraSans-Roman-20"/>
     <use x="663.0859375" xlink:href="#BitstreamVeraSans-Roman-20"/>
     <use x="694.873046875" xlink:href="#BitstreamVeraSans-Roman-31"/>
     <use x="758.49609375" xlink:href="#BitstreamVeraSans-Roman-33"/>
     <use x="822.119140625" xlink:href="#BitstreamVeraSans-Roman-39"/>
     <use x="885.7421875" xlink:href="#BitstreamVeraSans-Roman-29"/>
    </g>
   </g>
   <g id="patch_10">
    <path d="
M246.489 567.336
Q232.468 570.459 219.537 573.339" style="fill:none;stroke:#000000;stroke-linecap:round;"/>
    <path d="
M223.876 574.422
L219.537 573.339
L223.007 570.517" style="fill:none;stroke:#000000;stroke-linecap:round;"/>
   </g>
   <g id="text_27">
    <!-- #200:  19 (id:  168) -->
    <g transform="translate(226.49425 564.017125)scale(0.1 -0.1)">
     <use xlink:href="#BitstreamVeraSans-Roman-23"/>
     <use x="83.7890625" xlink:href="#BitstreamVeraSans-Roman-32"/>
     <use x="147.412109375" xlink:href="#BitstreamVeraSans-Roman-30"/>
     <use x="211.03515625" xlink:href="#BitstreamVeraSans-Roman-30"/>
     <use x="274.658203125" xlink:href="#BitstreamVeraSans-Roman-3a"/>
     <use x="308.349609375" xlink:href="#BitstreamVeraSans-Roman-20"/>
     <use x="340.13671875" xlink:href="#BitstreamVeraSans-Roman-20"/>
     <use x="371.923828125" xlink:href="#BitstreamVeraSans-Roman-31"/>
     <use x="435.546875" xlink:href="#BitstreamVeraSans-Roman-39"/>
     <use x="499.169921875" xlink:href="#BitstreamVeraSans-Roman-20"/>
     <use x="530.95703125" xlink:href="#BitstreamVeraSans-Roman-28"/>
     <use x="569.970703125" xlink:href="#BitstreamVeraSans-Roman-69"/>
     <use x="597.75390625" xlink:href="#BitstreamVeraSans-Roman-64"/>
     <use x="661.23046875" xlink:href="#BitstreamVeraSans-Roman-3a"/>
     <use x="694.921875" xlink:href="#BitstreamVeraSans-Roman-20"/>
     <use x="726.708984375" xlink:href="#BitstreamVeraSans-Roman-20"/>
     <use x="758.49609375" xlink:href="#BitstreamVeraSans-Roman-31"/>
     <use x="822.119140625" xlink:href="#BitstreamVeraSans-Roman-36"/>
     <use x="885.7421875" xlink:href="#BitstreamVeraSans-Roman-38"/>
     <use x="949.365234375" xlink:href="#BitstreamVeraSans-Roman-29"/>
    </g>
   </g>
   <g id="patch_11">
    <path d="
M330.999 570.126
Q316.572 573.255 303.238 576.147" style="fill:none;stroke:#000000;stroke-linecap:round;"/>
    <path d="
M307.572 577.254
L303.238 576.147
L306.724 573.344" style="fill:none;stroke:#000000;stroke-linecap:round;"/>
   </g>
   <g id="text_28">
    <!-- #300:   9 (id:17142) -->
    <g transform="translate(310.19425 566.807125)scale(0.1 -0.1)">
     <use xlink:href="#BitstreamVeraSans-Roman-23"/>
     <use x="83.7890625" xlink:href="#BitstreamVeraSans-Roman-33"/>
     <use x="147.412109375" xlink:href="#BitstreamVeraSans-Roman-30"/>
     <use x="211.03515625" xlink:href="#BitstreamVeraSans-Roman-30"/>
     <use x="274.658203125" xlink:href="#BitstreamVeraSans-Roman-3a"/>
     <use x="308.349609375" xlink:href="#BitstreamVeraSans-Roman-20"/>
     <use x="340.13671875" xlink:href="#BitstreamVeraSans-Roman-20"/>
     <use x="371.923828125" xlink:href="#BitstreamVeraSans-Roman-20"/>
     <use x="403.7109375" xlink:href="#BitstreamVeraSans-Roman-39"/>
     <use x="467.333984375" xlink:href="#BitstreamVeraSans-Roman-20"/>
     <use x="499.12109375" xlink:href="#BitstreamVeraSans-Roman-28"/>
     <use x="538.134765625" xlink:href="#BitstreamVeraSans-Roman-69"/>
     <use x="565.91796875" xlink:href="#BitstreamVeraSans-Roman-64"/>
     <use x="629.39453125" xlink:href="#BitstreamVeraSans-Roman-3a"/>
     <use x="663.0859375" xlink:href="#BitstreamVeraSans-Roman-31"/>
     <use x="726.708984375" xlink:href="#BitstreamVeraSans-Roman-37"/>
     <use x="790.33203125" xlink:href="#BitstreamVeraSans-Roman-31"/>
     <use x="853.955078125" xlink:href="#BitstreamVeraSans-Roman-34"/>
     <use x="917.578125" xlink:href="#BitstreamVeraSans-Roman-32"/>
     <use x="981.201171875" xlink:href="#BitstreamVeraSans-Roman-29"/>
    </g>
   </g>
   <g id="patch_12">
    <path d="
M781.466 572.358
Q793.89 575.457 805.229 578.285" style="fill:none;stroke:#000000;stroke-linecap:round;"/>
    <path d="
M801.832 575.376
L805.229 578.285
L800.864 579.257" style="fill:none;stroke:#000000;stroke-linecap:round;"/>
   </g>
   <g id="text_29">
    <!-- last:   1 (id:  187) -->
    <g transform="translate(712.89075 569.039125)scale(0.1 -0.1)">
     <use xlink:href="#BitstreamVeraSans-Roman-6c"/>
     <use x="27.783203125" xlink:href="#BitstreamVeraSans-Roman-61"/>
     <use x="89.0625" xlink:href="#BitstreamVeraSans-Roman-73"/>
     <use x="141.162109375" xlink:href="#BitstreamVeraSans-Roman-74"/>
     <use x="180.37109375" xlink:href="#BitstreamVeraSans-Roman-3a"/>
     <use x="214.0625" xlink:href="#BitstreamVeraSans-Roman-20"/>
     <use x="245.849609375" xlink:href="#BitstreamVeraSans-Roman-20"/>
     <use x="277.63671875" xlink:href="#BitstreamVeraSans-Roman-20"/>
     <use x="309.423828125" xlink:href="#BitstreamVeraSans-Roman-31"/>
     <use x="373.046875" xlink:href="#BitstreamVeraSans-Roman-20"/>
     <use x="404.833984375" xlink:href="#BitstreamVeraSans-Roman-28"/>
     <use x="443.84765625" xlink:href="#BitstreamVeraSans-Roman-69"/>
     <use x="471.630859375" xlink:href="#BitstreamVeraSans-Roman-64"/>
     <use x="535.107421875" xlink:href="#BitstreamVeraSans-Roman-3a"/>
     <use x="568.798828125" xlink:href="#BitstreamVeraSans-Roman-20"/>
     <use x="600.5859375" xlink:href="#BitstreamVeraSans-Roman-20"/>
     <use x="632.373046875" xlink:href="#BitstreamVeraSans-Roman-31"/>
     <use x="695.99609375" xlink:href="#BitstreamVeraSans-Roman-38"/>
     <use x="759.619140625" xlink:href="#BitstreamVeraSans-Roman-37"/>
     <use x="823.2421875" xlink:href="#BitstreamVeraSans-Roman-29"/>
    </g>
   </g>
   <g id="text_30">
    <!-- Profile of number of judged predictions made -->
    <defs>
     <path d="
M19.6719 64.7969
L19.6719 37.4062
L32.0781 37.4062
Q38.9688 37.4062 42.7188 40.9688
Q46.4844 44.5312 46.4844 51.125
Q46.4844 57.6719 42.7188 61.2344
Q38.9688 64.7969 32.0781 64.7969
z

M9.8125 72.9062
L32.0781 72.9062
Q44.3438 72.9062 50.6094 67.3594
Q56.8906 61.8125 56.8906 51.125
Q56.8906 40.3281 50.6094 34.8125
Q44.3438 29.2969 32.0781 29.2969
L19.6719 29.2969
L19.6719 0
L9.8125 0
z
" id="BitstreamVeraSans-Roman-50"/>
    </defs>
    <g transform="translate(332.8359375 16.318125)scale(0.12 -0.12)">
     <use xlink:href="#BitstreamVeraSans-Roman-50"/>
     <use x="58.552734375" xlink:href="#BitstreamVeraSans-Roman-72"/>
     <use x="97.416015625" xlink:href="#BitstreamVeraSans-Roman-6f"/>
     <use x="158.59765625" xlink:href="#BitstreamVeraSans-Roman-66"/>
     <use x="193.802734375" xlink:href="#BitstreamVeraSans-Roman-69"/>
     <use x="221.5859375" xlink:href="#BitstreamVeraSans-Roman-6c"/>
     <use x="249.369140625" xlink:href="#BitstreamVeraSans-Roman-65"/>
     <use x="310.892578125" xlink:href="#BitstreamVeraSans-Roman-20"/>
     <use x="342.6796875" xlink:href="#BitstreamVeraSans-Roman-6f"/>
     <use x="403.861328125" xlink:href="#BitstreamVeraSans-Roman-66"/>
     <use x="439.06640625" xlink:href="#BitstreamVeraSans-Roman-20"/>
     <use x="470.853515625" xlink:href="#BitstreamVeraSans-Roman-6e"/>
     <use x="534.232421875" xlink:href="#BitstreamVeraSans-Roman-75"/>
     <use x="597.611328125" xlink:href="#BitstreamVeraSans-Roman-6d"/>
     <use x="695.0234375" xlink:href="#BitstreamVeraSans-Roman-62"/>
     <use x="758.5" xlink:href="#BitstreamVeraSans-Roman-65"/>
     <use x="820.0234375" xlink:href="#BitstreamVeraSans-Roman-72"/>
     <use x="861.13671875" xlink:href="#BitstreamVeraSans-Roman-20"/>
     <use x="892.923828125" xlink:href="#BitstreamVeraSans-Roman-6f"/>
     <use x="954.10546875" xlink:href="#BitstreamVeraSans-Roman-66"/>
     <use x="989.310546875" xlink:href="#BitstreamVeraSans-Roman-20"/>
     <use x="1021.09765625" xlink:href="#BitstreamVeraSans-Roman-6a"/>
     <use x="1048.88085938" xlink:href="#BitstreamVeraSans-Roman-75"/>
     <use x="1112.25976562" xlink:href="#BitstreamVeraSans-Roman-64"/>
     <use x="1175.73632812" xlink:href="#BitstreamVeraSans-Roman-67"/>
     <use x="1239.21289062" xlink:href="#BitstreamVeraSans-Roman-65"/>
     <use x="1300.73632812" xlink:href="#BitstreamVeraSans-Roman-64"/>
     <use x="1364.21289062" xlink:href="#BitstreamVeraSans-Roman-20"/>
     <use x="1396.0" xlink:href="#BitstreamVeraSans-Roman-70"/>
     <use x="1459.4765625" xlink:href="#BitstreamVeraSans-Roman-72"/>
     <use x="1498.33984375" xlink:href="#BitstreamVeraSans-Roman-65"/>
     <use x="1559.86328125" xlink:href="#BitstreamVeraSans-Roman-64"/>
     <use x="1623.33984375" xlink:href="#BitstreamVeraSans-Roman-69"/>
     <use x="1651.12304688" xlink:href="#BitstreamVeraSans-Roman-63"/>
     <use x="1706.10351562" xlink:href="#BitstreamVeraSans-Roman-74"/>
     <use x="1745.3125" xlink:href="#BitstreamVeraSans-Roman-69"/>
     <use x="1773.09570312" xlink:href="#BitstreamVeraSans-Roman-6f"/>
     <use x="1834.27734375" xlink:href="#BitstreamVeraSans-Roman-6e"/>
     <use x="1897.65625" xlink:href="#BitstreamVeraSans-Roman-73"/>
     <use x="1949.75585938" xlink:href="#BitstreamVeraSans-Roman-20"/>
     <use x="1981.54296875" xlink:href="#BitstreamVeraSans-Roman-6d"/>
     <use x="2078.95507812" xlink:href="#BitstreamVeraSans-Roman-61"/>
     <use x="2140.234375" xlink:href="#BitstreamVeraSans-Roman-64"/>
     <use x="2203.7109375" xlink:href="#BitstreamVeraSans-Roman-65"/>
    </g>
   </g>
  </g>
 </g>
 <defs>
  <clipPath id="p0c17b9440c">
   <rect height="558.0" width="837.0" x="49.93125" y="21.318125"/>
  </clipPath>
 </defs>
</svg>
